<?xml version="1.0" encoding="UTF-8"?>
<svg id="Layer_1" xmlns="http://www.w3.org/2000/svg" version="1.1" viewBox="0 0 512 512">
  <!-- Generator: Adobe Illustrator 29.4.0, SVG Export Plug-In . SVG Version: 2.1.0 Build 152)  -->
  <defs>
    <style>
      .st0 {
        fill: none;
        stroke-width: 5px;
      }

      .st0, .st1, .st2 {
        stroke-miterlimit: 10;
      }

      .st0, .st2 {
        stroke: #fff;
      }

      .st3 {
        fill: #6aa329;
      }

      .st4, .st1, .st2 {
        fill: #fff;
      }

      .st1 {
        stroke: #000;
        stroke-width: 2px;
      }

      .st5 {
        fill: #101806;
      }
    </style>
  </defs>
  <circle class="st1" cx="256" cy="255.9" r="254"/>
  <g>
    <g id="Box">
      <path id="Box_background" class="st4" d="M259.5,279.7c-.3-.2-1.6-.4-2-.4-10.8-.3-159.1-43.6-168.4-35.3-9.3,8.3-.3.5-.6.7l-39.5,31.6c-7.4,5.4,15.2,14.8,48.1,23,1.1.3,5.1.5,4.6,1.6s-.2.8-.2,1.3l13.8,129c.2,1.1.9,2,1.8,2.3l135.8,49c1.2.4,2.3,0,2.8,0,.7,0,2.9-1.8,2.9-3.4l.2.9c0,1.4,1.2,2.3,2.6,2.5s1.8-.2,2-.3l138.2-48.9c.9-.3,1.5-1.1,1.6-2.1l13.9-129.6h0c-.3-3,1-1.6,3.3-2.7,32.9-8.3,56.8-17.7,48.3-23.7h0l-44.2-35.4c-.5-.4-1.1-.5-1.7-.4l-163.4,40"/>
      <g id="Box1">
        <path class="st5" d="M80.7,254.9l-8.9,7.2-8.9,7.2-8.9,7.2c-4.3,3.2-.3,6.4,9.7,10,10,3.6,20.6,6.8,40.6,11.5,4.1-.5,1.6-1,4.9-.2s90.9,23.6,94.7,24.7,1.1.2,1.5.1,1-.3,1.5-.5c2.1-1.3,5.4-3.7,9.5-6.9,4-3.2,8.8-7.2,14-11.6,5.2-4.4,11.9-10.2,16.4-14,4.6-3.8,6.2-5.1,7.6-6.1s1-.8,1.4-1.3.5-.8-.1-1.1l-.8-.3c-.4-.2-1.1-.3-1.5-.4-4.1-.7-13.6-3.1-26.2-6.4-12.5-3.3-28.3-7.5-44.5-11.6s-34.2-8.6-49.3-11.9-28.1-5.6-36-5.9c-1,0-2,0-2.8.3s-1.7.3-2.4.5-1.3.5-1.7.8-1.3,1.1-1.3,1.1l-8.4,7.2v.3h0,0Z"/>
        <path class="st5" d="M464.4,276.5c0,0-.2-.3-.3-.3l-20.3-17-19.8-16.5c-.4-.3-.9-.4-1.4-.3l-78.3,19.1s-57.4,14.3-77.8,19c0,0-1.7.5-2,.8s-.3.2-.3.3l-.3.7v.7c0,.3.1.7.3,1s1,1.3,1.1,1.5l21.9,16.7,21.5,17.5c.7.5,2.7,2,3.8,2.8s3.3.3,4.1,0c5.1-1.7,16.8-4.6,31.9-8.5,15-3.9,33.4-9,51.7-13.3l7.6-2,6.6-1.7,1.1-.3s.7.2,0,0c.4.2.9.3,1.3.3s.9,0,1.3-.1l2.5-.7,2.5-.8c5.2-1.3,6.9-1.8,8.3-2.3s2.6-1.1,6.7-2.3c5.3-1.6,10.5-3.1,14.9-4.6s8.1-2.9,10.3-4.4c1.3-1,2.1-2,2.3-2.9s-.7-2-1.1-2.5v.2h0Z"/>
        <path class="st5" d="M108.4,300.9h-1c-1.5.3-2.5,1.5-2.3,3l13.3,126.1c.2,1.1.9,2,1.8,2.3l132.2,47.3c.3.2,1.4.5,2.9.5s2.1-2.3,2.1-3.7v-190.2c0-.3-.3-.4-.5-.3l-49.3,39.3c-.7.5-1.4.5-2.2.4l-97-24.6h-.1,0Z"/>
        <path class="st5" d="M313.6,325.6c-.7.2-2.1.2-2.6-.3,0,0-1-.5-1.4-.9l-13.4-11-28.1-22.4-6.7-5.3c-.3-.2-.5,0-.5.3v191.8c0,1.4,1.2,2,2.5,2s1.8-.5,2.1-.7l133.8-46.8h.2c.3-.4.4-.7.5-1.2l13.6-129.2h0c0-.7-.5-1.2-1.1-1.2h-.3l-96.7,24.6h0l-1.8.3h0Z"/>
      </g>
    </g>
    <g id="Brain">
      <path id="Brain_background" class="st2" d="M212.2,51.3l-83.6,47c-5.9,3.3-10,9-11.4,15.6-6.9,34.1-18.7,45,2.9,77.7,3.2,4.7,7.9,8.1,13.4,9.5,39.3,10.3,50.7,7.2,75.1,41.8,5.4,7.7,15,11.4,24.3,9.3,17.9-4.2,42.2-16.9,55.2-23.1,3.7-1.7,7.8-2.5,11.9-2.1l58.6,4.9c2.3.2,4.7,0,7.1-.5,39.2-8.8,58.6-53.4,38-87.9-8.3-14-19.7-28.2-31.3-48.2-2.4-4.1-6.1-7.5-10.5-9.5-54.5-25.1-82.2-48.3-149.7-34.5"/>
      <g id="Electrods">
        <path class="st3" d="M213.3,147.6c-.8-2.8-2.7-3.7-4.1-4.1-.5,0-1-.2-1.5-.2-1.9,0-3.9.8-5.1,2.2-1,1-2,2.9-1.1,5.6.8,2.8,2.7,3.7,4.1,4.1,2.3.6,5.1-.3,6.6-2.1,1-1,2-2.9,1.1-5.6h0Z"/>
        <path class="st3" d="M173.4,123.4h0c-1.3-1.1-2.5-1.5-3.6-1.5s-1.4.2-2,.3c-2.2.8-4.1,3.1-4.4,5.4-.3,1.4,0,3.5,2.2,5.2,2.2,1.8,4.3,1.6,5.6,1,2.2-.8,4-3.1,4.3-5.4.3-1.4,0-3.5-2.2-5.2h0s0,0,0,0h0q0,0,0,0Z"/>
        <path class="st3" d="M214.4,107.6h0c-.3,1.5,0,3.6,2.2,5.3,2.3,1.8,4.3,1.6,5.7,1,2.2-.9,4-3.1,4.3-5.4.3-1.4,0-3.5-2.3-5.2-1.3-1.1-2.5-1.5-3.6-1.5s-1.4.2-2,.3c-2.2.8-4.1,3.1-4.4,5.4h.1q0,0,0,0Z"/>
        <path class="st3" d="M267.5,146.8c-1.3-1.1-2.6-1.5-3.6-1.5s-1.4.2-2,.3c-2.2.8-4.1,3.1-4.4,5.4-.3,1.4,0,3.5,2.2,5.2,2.3,1.9,4.3,1.6,5.7,1.1,2.2-.9,4-3.1,4.3-5.4h0c.3-1.3,0-3.4-2.3-5.1h.1Z"/>
        <path class="st3" d="M229.8,200.3h0c2.2-.8,4-3.1,4.3-5.4.3-1.4,0-3.5-2.2-5.2-1.3-1.1-2.5-1.5-3.6-1.5s-1.4.2-2,.3c-2.2.8-4.1,3.1-4.4,5.4-.3,1.4,0,3.5,2.2,5.2,2.2,1.9,4.3,1.6,5.6,1.1h.1Z"/>
        <path class="st3" d="M378.3,199.2c2.2,1.9,4.3,1.6,5.7,1.1,2.2-.9,4-3.1,4.3-5.4.3-1.4,0-3.5-2.3-5.2-1.3-1.1-2.6-1.5-3.6-1.5s-1.4.2-2,.3c-2.2.8-4.1,3.1-4.4,5.4h0c-.3,1.5,0,3.6,2.2,5.3h.1,0Z"/>
        <path class="st3" d="M312.3,96.8c-.8-2.8-2.7-3.6-4.1-4-.5,0-1-.2-1.5-.2-2,0-4,.8-5.2,2.2-1,1-2,2.8-1.1,5.5.8,2.8,2.6,3.7,4,4.1,2.3.6,5.1-.2,6.7-2.1,1-1,2-2.9,1.1-5.6h0s0,0,0,0h0q0,0,0,0Z"/>
        <path class="st3" d="M317.1,191.4c-1.1,0-1.4.2-2,.3-2.2.8-4.1,3.1-4.4,5.4-.3,1.4,0,3.5,2.2,5.2,1.1,1,2.4,1.5,3.9,1.5,2.6,0,4.9-2.1,5.9-4.7.8-2.4,0-4.6-2-6.2h0c-1.3-1.1-2.6-1.5-3.6-1.5h0Z"/>
        <path class="st3" d="M169.8,173.1c2.5,0,4.9-2.1,5.9-4.7.8-2.4,0-4.6-2-6.2-1.3-1.1-2.5-1.5-3.6-1.5s-1.4.2-2,.3c-2.2.8-4.1,3.1-4.4,5.4-.3,1.4,0,3.5,2.2,5.2h0c1.1,1,2.4,1.5,3.9,1.5h0Z"/>
        <path class="st3" d="M327,155.1c-.5,0-1-.2-1.5-.2-1.9,0-3.9.8-5.1,2.2-1,1.1-2,2.9-1.1,5.6.8,2.8,2.7,3.7,4.1,4.1,2.3.5,5.1-.3,6.6-2.1,1-1.1,2-2.9,1.1-5.6-.8-2.8-2.7-3.7-4.1-4.1h0s0,0,0,0h0q0,0,0,0Z"/>
      </g>
      <path id="Brain_foreground" class="st5" d="M406,146.9c-.3-.7-1.5-.8-2.1-.2l-12.1,12.5c-.7.8-2.3,2.8-2.8,4.5l-3.8,21.6c0,.5.3,1,.7,1.3.7.5.7.8,1.3,1.3,2.4,2,3.6,4.6,3.2,7.5-.5,3.3-2.8,6.2-5.9,7.3-1,.3-1.9.5-2.8.5-1.9,0-3.6-.7-5.2-2.1-2.4-1.9-3.5-4.6-3.1-7.5.5-3.3,2.8-6.2,5.9-7.3.5-.3,1.1-.3,1.7-.4.5,0,1-.5,1.1-1l3.8-22.2v-.2c.7-2.4,1.5-4.1,2.3-4.8l13.5-13.9c.5-.6,1.4-1.6,1.1-2.1-.3-.4-19.4-27.1-31.1-47-2.4-4.1-3.8-4.9-7.4-7.8-1.4-.8-1.1-1.3-3.6-2.4,0,0-2.8-1.7-2.8-.8l-5.2,70.2v.2c-.3.4,0,3.7-5.1,5.4h-.1l-12.7,1.4c-.7,0-1.1.5-1.2,1.1-.2,1.6-1,2.2-2.1,3.4-1.7,1.9-4.4,3-6.9,3s-1.4,0-2.1-.3c-2.8-.7-4.9-2.7-5.9-5.7-1-2.9-.4-5.8,1.6-8,2.2-2.4,5.8-3.5,9-2.8,2.6.6,4.6,2.4,5.6,4.9.2.5.7.8,1.1.8l10.5-.9h0c3.6-.8,4.8-1.8,5.3-5.8l5.1-67.6c0-.8-3.9-2.8-3.6-2.6-14.5-7-27.3-13.7-39.9-19.2h-.2c-.2,0-.3.2-.3.3l-2,26.7c0,.7.3,1.5,1,1.6,2.8.7,3.6,2.3,4.6,5.3,1,3,.4,5.9-1.6,8h0c-1.8,1.8-4.4,2.9-7,2.9s-2.4-.3-3.1-.6c-2.8-.7-3.8-2.4-4.7-5.4-1-2.9-.4-5.7,1.5-7.9,1.5-1.6,3.4-2.6,5.5-2.9.5,0,.9-1.1.9-1.7l2.1-27.6v-.2l-.2-.2h0c-12.4-5.3-35.6-10.4-41.6-11.7-.7-.2-2.1-.3-2.1.4.4,8.6,2.7,55.3,3,61.3.1,2.4-.1,3.4-1.1,4.8s-1.5,1.6-2.3,2.3l-47.4,29.7-.5.3c.5,2.7,0,5.1-1.9,7.1-1.7,1.8-4.4,3-6.9,3s-2.4-.3-3.4-.7h0c-2.5-1.3-3.6-2.4-4.5-5.3-1-2.9-.4-5.8,1.6-8,2.2-2.4,5.8-3.5,9-2.8,1.5.5,2.6,1.2,3.5,2.1.4.6,1.1,1.8,2,1.4l46.3-29c2.3-1.7,2.7-3.3,2.6-5.1l-2.6-61.2c0-1.1-.7-1.2-1.1-1.4s-29.4-.3-48.5,3.6c0,0-.3,0-.3.2-.8.4-1.1,1.1-1.2,2v.9l-2.1,21.2c0,.5,0,.8.3,1.6l10.6,21.4c.3.4.7.8,1.1.7,2.1-.2,3.9.5,5.7,2,2.4,2,3.6,4.6,3.2,7.5-.5,3.3-2.8,6.2-5.9,7.3-1,.3-1.9.6-2.8.6-1.9,0-3.6-.7-5.2-2.1-2.4-1.8-3.5-4.6-3.1-7.5.3-2.6,2-4.9,4.2-6.4.5-.3.8-1,.4-1.6l-10.3-21.2c-.3-.4-.3-1.4-.3-2,.3-2.3,1.5-14.8,2-20.2,0-1-1-1.6-1.8-1.1l-78.1,43.9c-5.9,3.3-10,9-11.4,15.6-2.2,10.6-4.8,19.1-6.7,26.6s.3,2.3,1.3,2.8l11.4,5.4,10.6,4.9c.3,0,.7.6,2.4.4,1.1-.2,1.6-.3,3.4-1.7h0l11.7-10.2,10.2-8.2c.3-.2.8-.8.8-1,0-.2-.3-.6-.4-.8-.5-.8-.5-1-.8-2-.2-.9-.3-1.8,0-2.8.3-1.6,1-3.2,2.1-4.5s2.4-2.3,3.9-2.8c1.4-.5,2.8-.7,4.1-.4s2.7.9,3.8,1.8c1.2,1,2.1,2.1,2.6,3.3s.7,2.6.4,4.1l-.3,1.5h0c-.4,1.3-1.2,2.5-2.1,3.5-1,1-2.1,1.8-3.3,2.3-.5.2-1,.3-1.5.4s-.9.2-1.5.2-1.4,0-2.1-.3c-.7-.2-1.3-.5-2-.9-.3-.2-.5-.2-.8-.2s-.5,0-.7.3l-12.5,10.4-10.9,9c-.2.2-2.1,1.6-4,2.1-2,.4-4.1-.6-4.4-.7l-9.7-4.6-11.3-5.3-.8-.5h0c-.5-.3-1.3,0-1.5.7-2.7,13.5-1.6,25.3,11.2,44.6,2,2.8,5.8,5.9,7.2,6.8s.7.2,1,0l33.2-27.4c.4-.3.5-.9.4-1.4-.4-1.2-.7-2.4-.4-3.7.5-3.3,2.8-6.2,5.9-7.3,2.8-1.1,5.6-.5,8,1.5,2.8,2.3,3.9,5.6,2.8,9-1.2,3.6-4.6,6.2-8.1,6.4-2.1,0-4-.8-5.4-2.1,0,0-.2-.2-.3-.3-.4-.4-1.1-.4-1.6,0l-32,26.1c-.3.3-.3.8.2,1,.9.3,2.1.8,2.8.9,31,8,43.9,7.2,60.3,23.8.8.8,1.9.3,2.1-.3l1.4-7.2c.4-2.7.8-3.6,2.1-4.6,0,0,16.5-9.1,20.9-13.5s.2-.5.2-.5c-1.1-3.2-1.1-2.5-.7-5.4.5-3.3,2.8-6.2,5.9-7.3,2.8-1.1,5.6-.5,8,1.5,2.4,2,3.6,4.6,3.1,7.5-.5,3.3-2.8,6.2-5.9,7.3-1,.3-1.9.5-2.8.5h-1.7c-1.1-.2-2-.8-2.4-1.1-.2,0-.3-.2-.5,0l-20.9,13.3c-.8.5-1.4,1.3-1.6,2.2s-.3,1.3-.5,2.2l-1.8,9v1.2c3.4,4.1,5.9,7.7,10,13.5,5.4,7.7,15,11.4,24.3,9.3,16.8-4,39.3-15.5,52.9-22,.7-.3.9-1.1.5-1.8l-22.9-34.2c-1.1-1.5-2-5.4-1.9-7.2v-26.6c.1-.5-.3-1-.7-1.1-1-.3-1.9-.8-2.8-1.6-2.4-1.8-3.5-4.6-3.1-7.5.5-3.3,2.8-6.2,5.9-7.3,2.8-1,5.6-.5,8,1.5,2.4,2,3.6,4.6,3.2,7.5-.5,3.3-2.8,6.2-5.9,7.3-.4.2-.7.3-1.1.3-.5.2-1,.7-1,1.2l.3,26.3c0,1.1,1.4,5.4,1.9,5.9l22.7,34.8c.3.5.9.7,1.5.5,3.2-1.1,6.5-1.6,9.8-1.3l25.3,2.1c.8,0,.7-.3.5-.8l-8.2-22c-.2-.5-.7-.8-1.3-.8h-.4c-2.1-.4-2.9-1.1-4.6-2.1h0c-2.4-2-3.5-4.6-3.1-7.5.5-3.3,2.8-6.2,5.9-7.3,2.8-1.1,5.6-.5,8,1.5,2.8,2.3,3.9,5.6,2.8,9-.7,2.1-1.5,3.3-3.1,4.4-.5.3-.5,1.4-.3,1.9l8.7,23.3c.2.4.5.8,1.1.8l27.2,2.2c2.3.2,4.7,0,7.1-.5,37.9-8.5,57.6-50.4,40.4-84.4l-.5.2h0l.2.2h0Z"/>
      <path id="Brain_outline" class="st0" d="M212.2,51.3l-83.6,47c-5.9,3.3-10,9-11.4,15.6-6.9,34.1-18.7,45,2.9,77.7,3.2,4.7,7.9,8.1,13.4,9.5,39.3,10.3,50.7,7.2,75.1,41.8,5.4,7.7,15,11.4,24.3,9.3,17.9-4.2,42.2-16.9,55.2-23.1,3.7-1.7,7.8-2.5,11.9-2.1l58.6,4.9c2.3.2,4.7,0,7.1-.5,39.2-8.8,58.6-53.4,38-87.9-8.3-14-19.7-28.2-31.3-48.2-2.4-4.1-6.1-7.5-10.5-9.5-54.5-25.1-82.2-48.3-149.7-34.5"/>
    </g>
  </g>
</svg>