<?xml version="1.0" encoding="UTF-8"?>
<svg id="Layer_1" data-name="Layer 1" xmlns="http://www.w3.org/2000/svg" viewBox="0 0 512 512">
  <defs>
    <style>
      .cls-1 {
        fill: none;
        stroke: #fff;
        stroke-width: 5px;
      }

      .cls-1, .cls-2, .cls-3 {
        stroke-miterlimit: 10;
      }

      .cls-4 {
        fill: #6aa329;
      }

      .cls-5, .cls-2 {
        fill: #fff;
      }

      .cls-2 {
        stroke: #000;
        stroke-width: 2px;
      }

      .cls-3 {
        stroke: #101806;
      }

      .cls-3, .cls-6 {
        fill: #101806;
      }
    </style>
  </defs>
  <circle class="cls-2" cx="256" cy="256" r="225.88"/>
  <g>
    <g id="Brain">
      <path id="Brain_background_2" data-name="Brain background 2" class="cls-4" d="M214.33,59.27l-74.23,41.77c-5.21,2.94-8.87,8.01-10.13,13.89-6.13,30.29-16.64,39.98,2.6,68.97,2.8,4.2,6.99,7.23,11.91,8.44,34.92,9.12,45.05,6.41,66.7,37.14,4.82,6.85,13.36,10.13,21.61,8.25,15.92-3.76,37.43-15.05,49-20.55,3.33-1.5,6.95-2.22,10.56-1.88l51.99,4.34c2.07.14,4.2.05,6.27-.43,34.82-7.81,51.99-47.41,33.76-78.09-7.38-12.44-17.51-25.08-27.83-42.78-2.17-3.67-5.4-6.66-9.31-8.44-48.42-22.28-73.02-42.93-132.92-30.63"/>
      <path id="Brain_foreground" data-name="Brain foreground" class="cls-6" d="M387.05,144.25c-.29-.58-1.35-.68-1.83-.14l-10.76,11.14c-.63.68-2.07,2.51-2.46,3.95l-3.38,19.15c0,.48.24.87.58,1.16.58.48.58.72,1.16,1.16,2.17,1.74,3.18,4.05,2.8,6.66-.43,2.89-2.51,5.5-5.21,6.51-.87.29-1.69.48-2.51.48-1.69,0-3.23-.58-4.63-1.83-2.17-1.69-3.09-4.05-2.75-6.66.43-2.89,2.51-5.5,5.26-6.51.48-.24,1.01-.29,1.54-.39.48,0,.87-.43.96-.87l3.38-19.68v-.14c.58-2.12,1.35-3.67,2.07-4.24l12.01-12.35c.48-.53,1.21-1.4,1.01-1.83-.24-.39-17.27-24.02-27.59-41.72-2.17-3.67-3.38-4.39-6.56-6.95-1.21-.72-1.01-1.16-3.18-2.17,0,0-2.46-1.54-2.46-.72l-4.63,62.31v.19c-.29.39,0,3.33-4.53,4.77h-.1l-11.29,1.21c-.58,0-1.01.43-1.06.96-.14,1.45-.87,1.93-1.88,3.04-1.54,1.69-3.91,2.65-6.13,2.65s-1.21,0-1.83-.24c-2.51-.58-4.39-2.41-5.21-5.06-.87-2.6-.39-5.11,1.45-7.09,1.93-2.12,5.11-3.09,7.96-2.46,2.32.53,4.1,2.12,4.97,4.39.14.43.58.68,1.01.68l9.31-.77h0c3.23-.72,4.24-1.64,4.68-5.11l4.53-60.05c0-.72-3.47-2.46-3.18-2.32-12.88-6.22-24.26-12.15-35.4-17.07h-.14c-.14,0-.24.14-.24.29l-1.74,23.73c0,.58.29,1.3.87,1.45,2.51.58,3.23,2.03,4.05,4.68.87,2.7.39,5.21-1.45,7.09h0c-1.59,1.59-3.91,2.6-6.22,2.6s-2.17-.29-2.75-.53c-2.51-.58-3.38-2.12-4.2-4.77-.87-2.6-.39-5.06,1.35-6.99,1.3-1.4,3.04-2.32,4.92-2.6.48-.05.82-1.01.82-1.5l1.83-24.55v-.14l-.14-.14h0c-11-4.68-31.59-9.26-36.94-10.42-.63-.14-1.88-.24-1.83.39.39,7.67,2.41,49.15,2.65,54.4.1,2.17-.1,3.04-.96,4.24s-1.3,1.45-2.07,2.03l-42.06,26.38-.43.29c.48,2.36,0,4.53-1.69,6.27-1.5,1.64-3.91,2.7-6.13,2.7s-2.17-.24-3.04-.58h0c-2.22-1.16-3.18-2.12-3.95-4.68-.87-2.6-.39-5.11,1.45-7.09,1.93-2.12,5.11-3.09,7.96-2.46,1.3.43,2.32,1.06,3.09,1.88.39.53.96,1.64,1.74,1.25l41.14-25.71c2.03-1.5,2.41-2.89,2.27-4.49l-2.32-54.36c0-1.01-.63-1.06-.96-1.21s-26.14-.29-43.07,3.18c-.05,0-.24,0-.29.14-.68.39-1.01,1.01-1.06,1.74v.82l-1.88,18.86c0,.43,0,.72.29,1.45l9.4,19c.24.39.58.68,1.01.58,1.83-.14,3.47.43,5.06,1.74,2.17,1.74,3.18,4.05,2.8,6.66-.43,2.89-2.51,5.5-5.21,6.51-.87.29-1.69.53-2.51.53-1.69,0-3.23-.58-4.63-1.83-2.17-1.64-3.09-4.05-2.75-6.66.29-2.32,1.74-4.39,3.76-5.69.43-.29.68-.87.39-1.4l-9.16-18.86c-.24-.39-.29-1.25-.29-1.74.24-2.03,1.3-13.17,1.74-17.94.05-.87-.87-1.45-1.59-1.01l-69.31,39.02c-5.21,2.94-8.87,8.01-10.13,13.89-1.93,9.45-4.24,16.93-5.98,23.58s.24,2.03,1.16,2.46l10.13,4.82,9.45,4.34c.24.05.58.53,2.17.39.96-.14,1.4-.29,3.04-1.5h0l10.42-9.02,9.02-7.28c.24-.14.68-.68.72-.92,0-.19-.24-.53-.39-.72-.43-.72-.43-.92-.68-1.74-.14-.77-.24-1.64-.05-2.46.24-1.45.87-2.8,1.83-3.95s2.12-2.03,3.47-2.51c1.21-.43,2.46-.58,3.67-.39s2.41.77,3.38,1.64c1.06.87,1.88,1.88,2.32,2.94s.58,2.32.39,3.62l-.29,1.3h0c-.39,1.16-1.06,2.22-1.88,3.09-.87.87-1.88,1.59-2.94,2.03-.43.14-.87.29-1.3.39s-.77.14-1.3.14-1.21-.05-1.83-.29c-.58-.14-1.16-.43-1.74-.77-.24-.14-.43-.14-.68-.14s-.43.05-.58.29l-11.14,9.26-9.69,8.01c-.14.14-1.83,1.45-3.52,1.88-1.74.39-3.67-.53-3.91-.58l-8.59-4.05-10.03-4.68-.72-.43h0c-.48-.29-1.16,0-1.3.58-2.41,12.01-1.45,22.43,9.98,39.6,1.74,2.51,5.11,5.21,6.37,6.08s.58.14.87,0l29.47-24.31c.39-.29.48-.77.39-1.21-.39-1.06-.58-2.17-.39-3.33.43-2.89,2.51-5.5,5.26-6.51,2.46-.96,4.97-.43,7.09,1.3,2.51,2.03,3.47,4.97,2.46,7.96-1.06,3.23-4.05,5.55-7.23,5.64-1.88,0-3.52-.68-4.82-1.83-.05,0-.14-.14-.24-.24-.39-.39-.96-.39-1.4,0l-28.46,23.2c-.29.24-.24.72.14.87.77.29,1.88.68,2.51.77,27.54,7.14,39.02,6.37,53.54,21.12.68.68,1.69.29,1.83-.24l1.21-6.37c.39-2.41.68-3.18,1.83-4.05,0,0,14.66-8.1,18.57-12.01s.14-.48.14-.48c-1.01-2.8-.96-2.22-.58-4.82.43-2.89,2.51-5.5,5.26-6.51,2.46-.96,4.97-.43,7.09,1.3,2.17,1.74,3.18,4.05,2.75,6.66-.43,2.89-2.51,5.5-5.21,6.51-.87.29-1.69.48-2.51.48h-1.5c-.96-.14-1.74-.72-2.12-1.01-.14-.05-.29-.14-.43,0l-18.52,11.77c-.72.43-1.21,1.16-1.4,1.93s-.24,1.16-.43,1.93l-1.59,8.01v1.06c3.04,3.62,5.26,6.85,8.87,12.01,4.82,6.85,13.36,10.13,21.61,8.25,14.95-3.52,34.92-13.75,46.93-19.53.58-.29.82-1.01.43-1.59l-20.31-30.34c-.96-1.3-1.74-4.77-1.69-6.37v-23.58c.1-.43-.24-.87-.58-1.01-.87-.29-1.69-.72-2.46-1.4-2.17-1.64-3.09-4.05-2.75-6.66.43-2.89,2.51-5.5,5.26-6.51,2.46-.92,4.97-.43,7.09,1.3,2.17,1.74,3.18,4.05,2.8,6.66-.43,2.89-2.51,5.5-5.21,6.51-.39.14-.63.24-1.01.29-.48.14-.87.58-.87,1.06l.24,23.34c0,1.01,1.21,4.77,1.69,5.21l20.11,30.87c.29.43.82.58,1.3.43,2.8-1.01,5.79-1.45,8.73-1.16l22.48,1.83c.72-.05.63-.29.48-.68l-7.28-19.53c-.14-.43-.63-.72-1.16-.72h-.39c-1.83-.39-2.6-.96-4.1-1.83h0c-2.17-1.74-3.09-4.05-2.75-6.66.43-2.89,2.51-5.5,5.26-6.51,2.46-.96,4.97-.43,7.09,1.3,2.51,2.03,3.47,4.97,2.46,7.96-.63,1.83-1.3,2.89-2.75,3.91-.43.29-.43,1.21-.24,1.69l7.72,20.69c.14.39.48.68.96.72l24.16,1.93c2.07.14,4.2,0,6.27-.43,33.66-7.52,51.17-44.76,35.84-74.9l-.48.19h0l.14.19h0Z"/>
      <path id="Brain_outline" data-name="Brain outline" class="cls-1" d="M214.33,59.27l-74.23,41.77c-5.21,2.94-8.87,8.01-10.13,13.89-6.13,30.29-16.64,39.98,2.6,68.97,2.8,4.2,6.99,7.23,11.91,8.44,34.92,9.12,45.05,6.41,66.7,37.14,4.82,6.85,13.36,10.13,21.61,8.25,15.92-3.76,37.43-15.05,49-20.55,3.33-1.5,6.95-2.22,10.56-1.88l51.99,4.34c2.07.14,4.2.05,6.27-.43,34.82-7.81,51.99-47.41,33.76-78.09-7.38-12.44-17.51-25.08-27.83-42.78-2.17-3.67-5.4-6.66-9.31-8.44-48.42-22.28-73.02-42.93-132.92-30.63"/>
    </g>
    <g id="Box">
      <path id="Box_background" data-name="Box background" class="cls-5" d="M256.34,272.2c-.24-.14-1.45-.39-1.74-.39-9.6-.24-141.32-38.68-149.56-31.3-8.25,7.38-.29.43-.53.58l-35.06,28.07c-6.56,4.82,13.5,13.12,42.73,20.45,1.01.24,4.49.43,4.1,1.45s-.19.72-.14,1.16l12.25,114.55c.14,1.01.77,1.78,1.64,2.07l120.62,43.5c1.06.39,2.07,0,2.51,0,.63,0,2.6-1.64,2.6-3.04l.14.82c0,1.21,1.06,2.07,2.32,2.22s1.59-.14,1.78-.29l122.7-43.41c.82-.29,1.35-1.01,1.45-1.88l12.35-115.08h0c-.29-2.65.87-1.45,2.89-2.36,29.23-7.38,50.4-15.67,42.88-21.08h0l-39.26-31.4c-.43-.39-1.01-.43-1.5-.39l-145.08,35.5"/>
      <g id="Box1">
        <path class="cls-6" d="M97.61,250.16l-7.86,6.41-7.86,6.41-7.86,6.41c-3.81,2.8-.29,5.69,8.59,8.87s18.28,6.08,36.03,10.22c3.62-.43,1.45-.87,4.39-.14,2.94.72,80.69,20.93,84.11,21.94,3.42,1.01.96.14,1.35.1s.87-.24,1.3-.43c1.88-1.16,4.82-3.33,8.39-6.13,3.52-2.8,7.81-6.41,12.4-10.32s10.56-9.02,14.57-12.4c4.05-3.38,5.5-4.53,6.7-5.4s.87-.72,1.21-1.16.43-.68-.1-.96l-.72-.29c-.39-.14-.96-.29-1.3-.39-3.62-.58-12.11-2.75-23.25-5.64-11.09-2.89-25.13-6.66-39.5-10.32s-30.39-7.67-43.79-10.61c-13.41-2.94-24.98-4.97-31.98-5.26-.87,0-1.74,0-2.51.24s-1.5.29-2.17.48-1.16.48-1.5.72-1.16.96-1.16.96l-7.43,6.41v.24h-.05,0Z"/>
        <path class="cls-6" d="M438.27,269.31s-.14-.24-.29-.29l-18.04-15.1-17.56-14.66c-.39-.29-.82-.39-1.21-.29l-69.5,16.98s-50.98,12.68-69.07,16.88c0,0-1.5.48-1.78.72s-.29.14-.29.29l-.24.58v.58c0,.24.1.58.24.87s.87,1.16,1.01,1.3l19.44,14.85,19.05,15.58c.63.48,2.36,1.74,3.38,2.51s2.94.29,3.67,0c4.53-1.5,14.95-4.1,28.31-7.57,13.36-3.47,29.66-8.01,45.92-11.77l6.7-1.74,5.84-1.5.96-.24s.58.14,0,0c.39.14.82.24,1.16.24s.82,0,1.16-.1l2.22-.63,2.22-.68c4.63-1.16,6.13-1.59,7.38-2.07s2.32-.96,5.98-2.07c4.68-1.45,9.31-2.75,13.22-4.1s7.23-2.6,9.12-3.91c1.16-.87,1.88-1.78,2.03-2.6s-.63-1.78-.96-2.22v.14h-.05Z"/>
        <path class="cls-6" d="M122.16,290.97h-.87c-1.3.24-2.22,1.35-2.07,2.65l11.82,111.94c.14,1.01.77,1.74,1.59,2.03l117.39,41.96c.24.14,1.21.48,2.6.48s1.88-2.03,1.88-3.33v-168.9c0-.24-.29-.39-.43-.24l-43.79,34.87c-.58.43-1.21.48-1.93.39l-86.09-21.85h-.1Z"/>
        <path class="cls-3" d="M304.43,312.91c-.63.14-1.88.14-2.32-.29,0,0-.87-.43-1.21-.82l-11.91-9.74-24.98-19.92-5.98-4.68c-.24-.14-.48,0-.48.24v170.35c0,1.21,1.06,1.78,2.22,1.78s1.64-.43,1.88-.58l118.79-41.57h.14c.24-.39.39-.63.43-1.06l12.11-114.69h0c0-.58-.43-1.06-1.01-1.06h-.24l-85.85,21.8h0l-1.64.29h.05v-.05Z"/>
      </g>
    </g>
  </g>
</svg>