<?xml version="1.0" encoding="UTF-8"?>
<svg id="Layer_2" data-name="Layer 2" xmlns="http://www.w3.org/2000/svg" xmlns:xlink="http://www.w3.org/1999/xlink" viewBox="0 0 959.36 340.3">
  <defs>
    <style>
      .cls-1, .cls-2 {
        fill: #6aa329;
      }

      .cls-1, .cls-3, .cls-4, .cls-5 {
        isolation: isolate;
      }

      .cls-1, .cls-4, .cls-5 {
        font-family: ArialMT, Arial;
      }

      .cls-1, .cls-5 {
        font-size: 123.7px;
      }

      .cls-6 {
        fill: none;
        stroke-width: 5px;
      }

      .cls-6, .cls-7 {
        stroke: #fff;
        stroke-miterlimit: 10;
      }

      .cls-8 {
        fill: url(#linear-gradient);
      }

      .cls-4 {
        font-size: 68.5px;
      }

      .cls-7 {
        fill: #fff;
      }

      .cls-9 {
        fill: #101806;
      }
    </style>
    <linearGradient id="linear-gradient" x1="334.12" y1="1065.18" x2="631.44" y2="1065.18" gradientTransform="translate(0 -962.19)" gradientUnits="userSpaceOnUse">
      <stop offset="0" stop-color="#ed1c24"/>
      <stop offset=".2" stop-color="#f26522"/>
      <stop offset=".4" stop-color="#ffde17"/>
      <stop offset=".6" stop-color="#6aa329"/>
      <stop offset=".8" stop-color="#21409a"/>
      <stop offset="1" stop-color="#7f3f98"/>
    </linearGradient>
  </defs>
  <g id="Layer_1-2" data-name="Layer 1">
    <g id="Brain">
      <path id="Brain_background_2" data-name="Brain background 2" class="cls-8" d="M436.2,6.44l-81.7,46c-5.7,3.3-9.8,8.8-11.1,15.3-6.8,33.3-18.3,44,2.9,75.9,3.1,4.6,7.7,7.9,13.1,9.3,38.4,10,49.5,7.1,73.4,40.9,5.3,7.6,14.7,11.1,23.8,9.1,17.5-4.1,41.2-16.5,53.9-22.6,3.7-1.7,7.6-2.5,11.6-2.1l57.2,4.8c2.3.2,4.6,0,6.9-.5,38.3-8.6,57.2-52.2,37.1-85.9-8.1-13.7-19.2-27.6-30.6-47.1-2.4-4.1-6-7.3-10.3-9.3-53.3-24.5-80.3-47.2-146.2-33.7"/>
      <path id="Brain_background" data-name="Brain background" class="cls-7" d="M436.2,6.44l-81.7,46c-5.7,3.3-9.8,8.8-11.1,15.3-6.8,33.3-18.3,44,2.9,75.9,3.1,4.6,7.7,7.9,13.1,9.3,38.4,10,49.5,7.1,73.4,40.9,5.3,7.6,14.7,11.1,23.8,9.1,17.5-4.1,41.2-16.5,53.9-22.6,3.7-1.7,7.6-2.5,11.6-2.1l57.2,4.8c2.3.2,4.6,0,6.9-.5,38.3-8.6,57.2-52.2,37.1-85.9-8.1-13.7-19.2-27.6-30.6-47.1-2.4-4.1-6-7.3-10.3-9.3-53.3-24.5-80.3-47.2-146.2-33.7"/>
      <g id="Electrods">
        <path class="cls-2" d="M437.4,100.54c-.8-2.7-2.6-3.7-4-4-.5,0-1-.2-1.4-.2-1.8,0-3.8.8-5,2.2-1,1-1.9,2.9-1,5.5.8,2.7,2.6,3.7,4,4,2.2.6,4.9-.3,6.4-2,1-1,1.9-2.9,1-5.5h0Z"/>
        <path class="cls-2" d="M398.4,76.84h0c-1.3-1.1-2.5-1.4-3.6-1.4s-1.4.2-1.9.3c-2.1.8-4,3-4.3,5.3-.2,1.3,0,3.4,2.1,5.1,2.1,1.8,4.2,1.6,5.5,1,2.1-.8,3.9-3,4.2-5.2.2-1.3,0-3.4-2.1-5.1h.1Z"/>
        <path class="cls-2" d="M438.5,61.34h0c-.2,1.4,0,3.5,2.1,5.2,2.2,1.8,4.2,1.6,5.6,1,2.1-.9,3.9-3,4.2-5.3.2-1.3,0-3.4-2.2-5.1-1.3-1.1-2.5-1.4-3.6-1.4s-1.4.2-1.9.3c-2.1.8-4,3-4.3,5.3h.1Z"/>
        <path class="cls-2" d="M490.3,99.74c-1.3-1.1-2.5-1.4-3.6-1.4s-1.4.2-1.9.3c-2.1.8-4,3-4.3,5.3-.2,1.3,0,3.4,2.1,5.1,2.2,1.8,4.2,1.6,5.6,1,2.1-.9,3.9-3,4.2-5.3h0c.2-1.3,0-3.3-2.2-5h.1Z"/>
        <path class="cls-2" d="M453.5,151.94h0c2.1-.8,3.9-3,4.2-5.2.2-1.4,0-3.4-2.1-5.1-1.3-1.1-2.5-1.4-3.6-1.4s-1.4.2-1.9.3c-2.1.8-4,3-4.3,5.3-.2,1.4,0,3.4,2.1,5.1,2.1,1.8,4.2,1.6,5.5,1h.1Z"/>
        <path class="cls-2" d="M598.5,150.94c2.2,1.8,4.2,1.6,5.6,1,2.2-.9,3.9-3,4.2-5.3.2-1.4,0-3.4-2.2-5.1-1.3-1.1-2.5-1.4-3.6-1.4s-1.3.2-1.9.3c-2.2.8-4,3-4.3,5.3h0c-.2,1.4,0,3.5,2.2,5.2h0Z"/>
        <path class="cls-2" d="M534,50.84c-.8-2.7-2.6-3.6-4-3.9-.5,0-1-.2-1.4-.2-1.9,0-3.9.8-5.1,2.2-1,1-1.9,2.8-1,5.4.8,2.7,2.5,3.7,3.9,4,2.2.6,4.9-.2,6.5-2,1-1,1.9-2.9,1.1-5.5h0Z"/>
        <path class="cls-2" d="M538.7,143.24c-1.1,0-1.3.2-1.9.3-2.2.8-4,3-4.3,5.3-.2,1.4,0,3.4,2.2,5.1,1.1.9,2.4,1.4,3.8,1.4,2.5,0,4.8-2,5.7-4.6.8-2.3,0-4.5-1.9-6.1h0c-1.3-1-2.5-1.4-3.6-1.4h0Z"/>
        <path class="cls-2" d="M394.9,125.44c2.5,0,4.9-2,5.7-4.6.8-2.3,0-4.5-1.9-6.1-1.3-1-2.5-1.4-3.6-1.4s-1.4.2-1.9.3c-2.1.8-4,3-4.3,5.3-.2,1.3,0,3.4,2.1,5.1h0c1.1.9,2.4,1.4,3.8,1.4h.1Z"/>
        <path class="cls-2" d="M548.4,107.74c-.5,0-1-.2-1.4-.2-1.8,0-3.8.8-5,2.2-1,1-1.9,2.9-1,5.5.8,2.7,2.6,3.7,4,4,2.2.6,4.9-.3,6.4-2,1-1,1.9-2.9,1-5.5-.8-2.7-2.6-3.7-4-4h0Z"/>
      </g>
      <path id="Brain_foreground" data-name="Brain foreground" class="cls-9" d="M625.6,99.84c-.3-.6-1.5-.7-2-.2l-11.8,12.2c-.7.7-2.3,2.8-2.7,4.4l-3.7,21.1c0,.6.2.9.6,1.3.6.6.6.8,1.3,1.3,2.4,1.9,3.5,4.4,3.1,7.3-.5,3.2-2.8,6-5.7,7.2-1,.3-1.8.6-2.8.6-1.8,0-3.6-.6-5.1-2-2.4-1.8-3.4-4.4-3-7.3.5-3.2,2.8-6,5.8-7.2.6-.2,1.1-.3,1.7-.4.6,0,1-.5,1-.9l3.7-21.6v-.2c.6-2.3,1.5-4.1,2.3-4.7l13.2-13.6c.6-.6,1.3-1.5,1.1-2-.2-.4-19-26.4-30.4-45.9-2.4-4.1-3.7-4.8-7.2-7.6-1.3-.8-1.1-1.3-3.5-2.4,0,0-2.7-1.7-2.7-.8l-5.1,68.5v.2c-.3.4,0,3.7-5,5.2h0l-12.4,1.3c-.6,0-1.1.5-1.2,1-.2,1.6-1,2.2-2.1,3.3-1.7,1.8-4.3,2.9-6.8,2.9s-1.3,0-2-.2c-2.8-.6-4.8-2.6-5.7-5.6-1-2.9-.4-5.7,1.6-7.8,2.2-2.3,5.7-3.4,8.8-2.7,2.5.6,4.5,2.3,5.5,4.8.2.5.6.7,1.1.7l10.3-.9h0c3.6-.8,4.7-1.8,5.2-5.7l5-66.1c0-.8-3.8-2.7-3.5-2.5-14.2-6.8-26.7-13.4-39-18.8h-.2c-.2,0-.2.2-.2.3l-1.9,26.1c0,.6.3,1.4,1,1.6,2.8.6,3.6,2.2,4.5,5.2,1,2.9.4,5.7-1.6,7.8h0c-1.8,1.8-4.3,2.9-6.8,2.9s-2.4-.3-3-.6c-2.8-.6-3.7-2.3-4.6-5.2-1-2.9-.4-5.6,1.5-7.7,1.4-1.5,3.3-2.5,5.4-2.9.6,0,.9-1.1.9-1.7l2-27v-.2l-.2-.2h0c-12.1-5.2-34.8-10.2-40.6-11.4-.7-.2-2.1-.2-2,.4.4,8.4,2.6,54.1,2.9,59.9,0,2.4,0,3.3-1,4.7s-1.4,1.6-2.3,2.2l-46.3,29-.5.3c.6,2.6,0,5-1.8,6.9-1.7,1.8-4.3,2.9-6.8,2.9s-2.4-.2-3.3-.6h0c-2.5-1.3-3.5-2.3-4.4-5.2-1-2.9-.4-5.7,1.6-7.8,2.1-2.3,5.6-3.4,8.8-2.7,1.4.5,2.5,1.2,3.4,2.1.4.6,1,1.8,1.9,1.3l45.2-28.3c2.2-1.7,2.6-3.2,2.5-4.9l-2.5-59.8c0-1.1-.7-1.2-1-1.3s-28.8-.3-47.4,3.5c0,0-.2,0-.3.2-.7.4-1.1,1.1-1.2,1.9v.9l-2.1,20.8c0,.5,0,.8.3,1.6l10.3,20.9c.2.4.6.7,1.1.6,2-.2,3.8.5,5.6,1.9,2.4,1.9,3.5,4.5,3.1,7.3-.5,3.2-2.8,6-5.7,7.2-1,.3-1.8.6-2.8.6-1.8,0-3.6-.6-5.1-2-2.4-1.8-3.4-4.5-3-7.3.3-2.5,1.9-4.8,4.1-6.3.5-.3.7-1,.4-1.5l-10.1-20.8c-.2-.4-.3-1.4-.3-1.9.2-2.2,1.4-14.5,1.9-19.7,0-.9-1-1.6-1.8-1.1l-76.3,42.9c-5.7,3.3-9.8,8.8-11.1,15.3-2.1,10.4-4.7,18.6-6.6,25.9s.2,2.2,1.3,2.7l11.1,5.3,10.4,4.8c.2,0,.6.6,2.4.4,1-.2,1.5-.3,3.3-1.7h0l11.5-9.9,9.9-8c.2-.2.7-.7.8-1,0-.2-.2-.6-.4-.8-.5-.8-.5-1-.7-1.9s-.2-1.8,0-2.7c.2-1.6,1-3.1,2-4.4s2.3-2.2,3.8-2.8c1.4-.5,2.7-.6,4.1-.4s2.6.9,3.7,1.8c1.2.9,2.1,2.1,2.5,3.3s.6,2.5.4,4l-.3,1.4h0c-.4,1.3-1.2,2.5-2.1,3.4-1,.9-2.1,1.8-3.3,2.2-.5.2-1,.3-1.4.4s-.9.2-1.4.2-1.4,0-2-.3c-.6-.2-1.3-.5-1.9-.9-.2-.2-.5-.2-.7-.2s-.5,0-.6.3l-12.2,10.2-10.7,8.8c-.2.2-2,1.6-3.9,2.1-1.9.4-4.1-.6-4.3-.6l-9.5-4.4-11-5.2-.8-.5h0c-.6-.3-1.3,0-1.4.6-2.6,13.2-1.6,24.7,11,43.6,1.9,2.8,5.6,5.7,7,6.7s.6.2,1,0l32.4-26.7c.4-.3.6-.9.4-1.3-.4-1.2-.6-2.4-.4-3.7.5-3.2,2.8-6,5.8-7.2,2.7-1,5.5-.5,7.8,1.4,2.8,2.2,3.8,5.5,2.7,8.8-1.2,3.6-4.5,6.1-8,6.2-2.1,0-3.9-.7-5.3-2l-.2-.2c-.4-.4-1-.4-1.5,0l-31.3,25.5c-.3.2-.2.8.2.9.9.3,2.1.7,2.8.9,30.3,7.9,42.9,7,58.9,23.2.7.7,1.8.3,2-.2l1.4-7c.4-2.6.7-3.5,2-4.4,0,0,16.1-8.9,20.4-13.2.2-.2.2-.6.2-.6-1.1-3.1-1-2.5-.6-5.3.5-3.2,2.8-6,5.8-7.2,2.7-1,5.5-.5,7.8,1.4,2.4,1.9,3.5,4.4,3,7.3-.5,3.2-2.8,6-5.7,7.2-1,.3-1.8.6-2.8.6h-1.7c-1-.2-1.9-.8-2.3-1.1-.2,0-.3-.2-.5,0l-20.4,13c-.8.5-1.4,1.3-1.5,2.1s-.2,1.3-.5,2.1l-1.8,8.8v1.2c3.3,4,5.8,7.6,9.8,13.2,5.3,7.6,14.7,11.1,23.8,9.1,16.5-3.9,38.4-15.1,51.6-21.5.6-.3.9-1.1.5-1.8l-22.3-33.4c-1-1.4-1.9-5.2-1.8-7v-25.9c0-.5-.2-.9-.6-1.1-1-.3-1.8-.8-2.7-1.5-2.4-1.8-3.4-4.4-3-7.3.5-3.2,2.8-6,5.8-7.2,2.7-1,5.5-.5,7.8,1.4,2.4,1.9,3.5,4.4,3.1,7.3-.5,3.2-2.8,6-5.7,7.2-.4.2-.7.2-1.1.3-.6.2-1,.6-1,1.2l.2,25.7c0,1.1,1.4,5.2,1.8,5.7l22.1,33.9c.3.5.9.6,1.4.5,3.1-1.1,6.4-1.6,9.6-1.3l24.7,2c.8,0,.7-.3.6-.7l-8-21.5c-.2-.5-.7-.8-1.3-.8h-.4c-2-.4-2.9-1-4.5-2h0c-2.4-1.9-3.4-4.4-3-7.3.5-3.2,2.8-6,5.8-7.2,2.7-1,5.5-.5,7.8,1.4,2.8,2.2,3.8,5.5,2.7,8.8-.7,2-1.4,3.2-3,4.3-.5.3-.5,1.4-.2,1.8l8.5,22.7c.2.4.6.7,1,.8l26.6,2.1c2.3.2,4.6,0,6.9-.5,37.1-8.3,56.3-49.2,39.4-82.4l-.6.2h0l-.5.6h0Z"/>
      <path id="Brain_outline" data-name="Brain outline" class="cls-6" d="M436.2,6.44l-81.7,46c-5.7,3.3-9.8,8.8-11.1,15.3-6.8,33.3-18.3,44,2.9,75.9,3.1,4.6,7.7,7.9,13.1,9.3,38.4,10,49.5,7.1,73.4,40.9,5.3,7.6,14.7,11.1,23.8,9.1,17.5-4.1,41.2-16.5,53.9-22.6,3.7-1.7,7.6-2.5,11.6-2.1l57.2,4.8c2.3.2,4.6,0,6.9-.5,38.3-8.6,57.2-52.2,37.1-85.9-8.1-13.7-19.2-27.6-30.6-47.1-2.4-4.1-6-7.3-10.3-9.3-53.3-24.5-80.3-47.2-146.2-33.7"/>
    </g>
    <g class="cls-3">
      <g class="cls-3">
        <g class="cls-3">
          <text class="cls-5" transform="translate(0 300.14)"><tspan x="0" y="0">NEURO</tspan></text>
        </g>
      </g>
      <g class="cls-3">
        <g class="cls-3">
          <text class="cls-1" transform="translate(446.7 300.14)"><tspan x="0" y="0">DESK</tspan></text>
        </g>
      </g>
      <g class="cls-3">
        <g class="cls-3">
          <text class="cls-4" transform="translate(784.3 300.14)"><tspan x="0" y="0">.ORG</tspan></text>
        </g>
      </g>
    </g>
  </g>
</svg>