<svg xmlns="http://www.w3.org/2000/svg" viewBox="0 0 210.76 41.04">
  <defs>
    <style>
      .cls-1 {
        isolation: isolate;
        font-size: 33.25px;
        font-family: Arial-BoldMT, Arial;
        font-weight: 700;
      }

      .cls-2 {
        font-size: 29px;
      }

      .cls-3 {
        fill: #636363;
        stroke: #d6d6d6;
        stroke-width: 0.75px;
      }
    </style>
  </defs>
  <g id="Layer_2" data-name="Layer 2">
    <g id="svg5">
      <g>
        <text class="cls-1" transform="translate(0 28.53)">NEUR<tspan class="cls-2" x="94.21" y="0" xml:space="preserve">   </tspan><tspan x="118.39" y="0">DESK</tspan></text>
        <g id="g1963">
          <path id="path1230" class="cls-3" d="M102.85,28.8a8.8,8.8,0,0,1-1.5-.5,4.57,4.57,0,0,1-1.6-1.1,3.59,3.59,0,0,1-.7-1c.3-.3.5-.6.8-.9l.9-.9h1.1a5.5,5.5,0,0,1,2.2.2.22.22,0,0,1,.2.2.76.76,0,0,0,.5.2.71.71,0,0,0,.6-.3.6.6,0,0,0,.3-.6v-.3a.78.78,0,0,0-.4-.4h-.6a.76.76,0,0,0-.5.2c0,.1-.1.1-.2.2a7.41,7.41,0,0,1-2.1.1h-1.6l-.8.8-.8.8c-.1-.1-.1-.2-.2-.3l-.7-1.4a13.65,13.65,0,0,1-1.4-3.3,5,5,0,0,1-.2-1.2l.6-.3a6,6,0,0,0,1.3-.9,3.55,3.55,0,0,1,.9-.4h.8a1,1,0,0,0,.8-.5c.1-.1.1-.2.1-.4v-.3a1,1,0,0,0-1.4-.2l-.2.2a9.2,9.2,0,0,1-2.5,1.9l-.2.1s.1-2,.2-2.6a6.47,6.47,0,0,1,.4-2,.35.35,0,0,1,.2-.1,1.73,1.73,0,0,1,.7-.1,2.42,2.42,0,0,1,1.4.3c.1.1.2.1.2.2a.72.72,0,0,0,.9-.5h0c0-.1.1-.3.1-.4,0-.5-.1-.6-.4-.7a.85.85,0,0,0-.7,0c-.1,0-.2.1-.3.2s-.2.2-.3.2h-1.3v-.2c.1-.5.2-1.1.3-1.6a3.36,3.36,0,0,1,1-1.6,10.47,10.47,0,0,0,.8-1.1,3,3,0,0,1,.8-.8c.5-.4.6-.5.7-.8a2.09,2.09,0,0,1,.4-.6,5.92,5.92,0,0,1,2.8-1.8h.4a1.75,1.75,0,0,1,1.4.7,2.84,2.84,0,0,1,.4,1.2,1.08,1.08,0,0,1-.2.8,3.86,3.86,0,0,1-1.5,1.6c-.1.1-.2.1-.4.1a.32.32,0,0,1-.3-.3c0-.1-.1-.1-.2-.2h-.5a.84.84,0,0,0-.7.2c-.2.1-.2.3-.2.5a.71.71,0,0,0,.3.6.86.86,0,0,0,.6.3,1.42,1.42,0,0,0,.6-.2,1.14,1.14,0,0,1,.8-.3l.3-.1h.1a.55.55,0,0,0,.5-.3l.6-.6.4-.4v3.5h-.1c-.3,0-.8-.1-1-.1a.86.86,0,0,1-.6-.3.73.73,0,0,0-.6-.2.81.81,0,0,0-.8.4c-.1.1-.1.2-.1.4V12h0a1.42,1.42,0,0,0,.2.4c.1.1.1.1.2.1a.6.6,0,0,0,.4.1c.4,0,.5,0,.6-.2s.2-.2.3-.2a10.42,10.42,0,0,1,1.1-.1h.3v4.7h-.2a1,1,0,0,1-.8-.3c-.2-.2-.2-.3-.2-.6V15c0-.1-.1-.1-.2-.2s-.1-.1-.5-.1h-.4l-.2.1a.67.67,0,0,0-.4.7.76.76,0,0,0,.1.4.78.78,0,0,0,.4.4,4.23,4.23,0,0,1,.7.5c.3.3.4.4.5.4h.1c.2.1.3.2.5.2l.5.1a1.27,1.27,0,0,1,.1.6v.3h-4.1l-.3.3a4.39,4.39,0,0,1-1.8,1.2c-.4.1-.5.3-.5.9v.4a1.23,1.23,0,0,0,.8.4c.2,0,.3,0,.6-.3a1,1,0,0,0,.4-.7,1.46,1.46,0,0,1,.6-.9,2.37,2.37,0,0,1,1.5-.5,17.85,17.85,0,0,1,2.3-.2c.1,1.1.2,2.3.2,3.4,0,.8.1,4.2.1,5.1v.4l-.2.2a2.9,2.9,0,0,1-1.8.5,4.42,4.42,0,0,1-1.5.2Z"/>
          <path id="path1853" class="cls-3" d="M109.05,28.8a6.47,6.47,0,0,1-1.3-.4.78.78,0,0,1-.4-.4,6.56,6.56,0,0,1-.1-2c0-1.9.1-5.5.2-6.7v-.2h.1c.3,0,2.2.2,2.6.2a2.38,2.38,0,0,1,1.1.6,2.07,2.07,0,0,1,.6,1,.82.82,0,0,0,.4.6.85.85,0,0,0,.8,0,.78.78,0,0,0,.4-.4c.1-.1.1-.2.1-.4a.6.6,0,0,0-.1-.4.22.22,0,0,0-.2-.2c-.1-.1-.1-.1-.7-.3a5.83,5.83,0,0,1-1.5-1.1l-.3-.2h-3.3v-.4c0-.5.1-.6.2-.7h.5a1.7,1.7,0,0,0,.7-.1l.3-.3.3-.3.3-.1a.71.71,0,0,0,.6-.3.76.76,0,0,0,.2-.5.37.37,0,0,0-.1-.3,1.7,1.7,0,0,0-.6-.6.5.5,0,0,0-.6,0,2.65,2.65,0,0,0-.5.6.6.6,0,0,0-.1.4c0,.3,0,.3-.2.5s-.4.2-1,.3h-.2V15a20.9,20.9,0,0,0-.1-2.5l-.1-.4h.1a4.87,4.87,0,0,1,1.2.1,1.08,1.08,0,0,1,.7.3.85.85,0,0,0,.6.2.71.71,0,0,0,.6-.3.63.63,0,0,0,.2-.8,1.21,1.21,0,0,0-.5-.5.37.37,0,0,0-.3-.1,1.85,1.85,0,0,0-.7.2,2.77,2.77,0,0,1-1.3.3h-.5V9.6a5.7,5.7,0,0,0-.1-1.3V7.9l.5.5a2.36,2.36,0,0,0,.9.8,3.55,3.55,0,0,0,1,.2h.3l.2.2a.71.71,0,0,0,.6.3h.4a.72.72,0,0,0,.5-.9.78.78,0,0,0-.3-.7.6.6,0,0,0-.4-.1c-.3,0-.3,0-.4.1s-.2.1-.3.2a.76.76,0,0,1-.5.2c-.3,0-.7-.2-1.3-.9s-.9-1.1-.8-1.5.2-.7.3-1.1a1.39,1.39,0,0,1,.7-.8,2.44,2.44,0,0,1,2.2.4,3.55,3.55,0,0,1,2,1.8c.1.2.2.4.8.8a5.24,5.24,0,0,1,1,1.1,3,3,0,0,1,.5.7c1,1.3,1.2,1.6,1.3,2.4a4.94,4.94,0,0,0,.5,1.6,9.28,9.28,0,0,1,.7,3.3c.1.9.1.9,0,1a8.64,8.64,0,0,1-1.4,1.3c-.4.3-.6.3-1.4-.4-.5-.5-1-1-1.5-1.6-.1-.2-.2-.3-.1-.4a1.07,1.07,0,0,1,.6-.2,1.42,1.42,0,0,0,.6-.2,1.16,1.16,0,0,0,.5-.7c0-.2,0-.4-.2-.5a1,1,0,0,0-.7-.4,1.27,1.27,0,0,0-.6.1c-.2.1-.2.2-.3.6s-.2.5-.7,1.1c-.2.3-.3.4-.2.6a27.55,27.55,0,0,0,3,2.9c.4.3.4.3,1.8-.8a2.09,2.09,0,0,1,.6-.4v.9a11.7,11.7,0,0,1-.7,2.5c-.1.3-1.9,4-2,4.1l-.2.2a3.92,3.92,0,0,1-1-.8,4.44,4.44,0,0,0-1.1-.8c-.3-.1-.7-.2-1-.3a4.94,4.94,0,0,1-1.6-.5l-.3-.1h-.3a.9.9,0,0,0-.5.1.78.78,0,0,0-.4.4.64.64,0,0,0,0,.6,1,1,0,0,0,.4.5.6.6,0,0,0,.4.1.73.73,0,0,0,.6-.2,1.49,1.49,0,0,1,.9-.2,2.46,2.46,0,0,1,1.5.5,10.72,10.72,0,0,1,1.5,1.3l.3.3-.3.2-1.5.9a6.36,6.36,0,0,1-1.8.6Z"/>
        </g>
      </g>
    </g>
  </g>
</svg>
