<svg xmlns="http://www.w3.org/2000/svg" viewBox="0 0 205.09 41.05">
  <defs>
    <style>
      .cls-1 {
        isolation: isolate;
        font-size: 33.25px;
        font-family: Arial-BoldMT, Arial;
        font-weight: 700;
      }

      .cls-2 {
        fill: #650065;
      }
    </style>
  </defs>
  <g id="Layer_2" data-name="Layer 2">
    <g id="svg5">
      <g id="layer1">
        <g>
          <text class="cls-1" transform="translate(0 28.53)"><tspan xml:space="preserve">NEUR  DESK</tspan></text>
          <g id="g1963">
            <path id="path1230" class="cls-2" d="M99.37,28.74a4.59,4.59,0,0,1-1.51-.55,6.31,6.31,0,0,1-1.63-1.09,4.43,4.43,0,0,1-.72-1s.34-.36.85-.85l.91-.86s0,0,0,0l1.07,0a6.54,6.54,0,0,1,2.18.19l.23.16a.65.65,0,0,0,.52.19.92.92,0,0,0,.62-.31.67.67,0,0,0,.26-.58.58.58,0,0,0,0-.36.8.8,0,0,0-.44-.41,1,1,0,0,0-.37,0,.51.51,0,0,1-.19,0,.62.62,0,0,0-.53.22.43.43,0,0,1-.16.14,7.26,7.26,0,0,1-2.07.15l-1.31,0h-.29l-.78.81c-.43.45-.78.81-.79.81a1.46,1.46,0,0,1-.17-.3c-.09-.16-.41-.79-.72-1.4a14.51,14.51,0,0,1-1.45-3.32,6.55,6.55,0,0,1-.19-1.24l.56-.34A13.47,13.47,0,0,0,94.59,18a2.69,2.69,0,0,1,.87-.43,1.11,1.11,0,0,1,.41,0,2,2,0,0,0,.41,0,1,1,0,0,0,.8-.53.6.6,0,0,0,.08-.37.55.55,0,0,0,0-.34.83.83,0,0,0-.84-.45.92.92,0,0,0-.64.18,1.2,1.2,0,0,0-.16.21A9.5,9.5,0,0,1,93,18.18l-.25.11s.1-1.95.16-2.59a5.41,5.41,0,0,1,.41-2,.37.37,0,0,1,.15-.11c.1-.05.15-.05.73-.05.84,0,1,0,1.37.32l.26.17a.75.75,0,0,0,.94-.5,1.26,1.26,0,0,0,0-.44c0-.48-.08-.61-.44-.7a1.75,1.75,0,0,0-.72,0,.71.71,0,0,0-.3.23c-.17.17-.18.18-.34.21a5.33,5.33,0,0,1-1.2,0l-.09,0v-.14A11.42,11.42,0,0,1,94,11a4.51,4.51,0,0,1,1-1.64,7.7,7.7,0,0,0,.77-1.09,2.7,2.7,0,0,1,.76-.81c.48-.36.64-.52.71-.76a1.61,1.61,0,0,1,.36-.61,5.89,5.89,0,0,1,2.82-1.79,2.34,2.34,0,0,1,.42,0,1.51,1.51,0,0,1,1.37.74,2.3,2.3,0,0,1,.37,1.23,1.4,1.4,0,0,1-.2.8,3.71,3.71,0,0,1-1.53,1.56,1,1,0,0,1-.38.06c-.09,0-.24-.13-.33-.28s-.08-.11-.23-.15a1.24,1.24,0,0,0-.5-.06.88.88,0,0,0-.7.2.62.62,0,0,0-.2.56.77.77,0,0,0,.32.62.91.91,0,0,0,.6.3.66.66,0,0,0,.55-.2,1.37,1.37,0,0,1,.75-.31l.34-.07.09,0a1.31,1.31,0,0,0,.5-.27c.09-.07.34-.32.56-.55l.4-.42V9.32c0,.71,0,1.25,0,1.2a1.35,1.35,0,0,1,0,.39c0,.26,0,.52,0,.58l0,.1h-.11c-.33,0-.81-.06-1-.09a1.19,1.19,0,0,1-.61-.28.82.82,0,0,0-.64-.19c-.44,0-.63.09-.76.36a.81.81,0,0,0-.08.37c0,.17,0,.25,0,.25s0,0,0,0a.66.66,0,0,0,.16.38.89.89,0,0,0,.22.16c.11.05.15.05.45.05s.51,0,.62-.17.17-.19.29-.22.56-.06,1.09-.08l.33,0,0,1.15c0,.64,0,1.19,0,1.24s0,.59,0,1.21v1.12h-.18c-.46,0-.63-.1-.8-.28s-.21-.28-.2-.64c0-.79,0-.75-.06-.87a.39.39,0,0,0-.21-.19c-.13-.07-.14-.07-.54-.07h-.4l-.17.09a.61.61,0,0,0-.38.67.69.69,0,0,0,.09.36,1,1,0,0,0,.39.41,5,5,0,0,1,.74.53c.35.29.43.35.48.35a.1.1,0,0,1,.07.05,1.18,1.18,0,0,0,.54.17c.46.08.48.08.51.15a1.74,1.74,0,0,1,.1.63v.34H99l-.29.26a5.47,5.47,0,0,1-1.83,1.24c-.37.08-.49.3-.49.87,0,.28,0,.33,0,.4a1.07,1.07,0,0,0,.75.4c.21,0,.31,0,.55-.26a1.17,1.17,0,0,0,.35-.67,1.78,1.78,0,0,1,.58-.95c.37-.35.61-.43,1.51-.53a20,20,0,0,1,2.3-.16,27.41,27.41,0,0,1,.21,3.43c0,.79.07,4.17.07,5.11v.42l-.24.15a2.94,2.94,0,0,1-1.8.5,5.76,5.76,0,0,1-1.39,0Zm3.25-18s0,0,0,0,0,0,0,0A.06.06,0,0,0,102.62,10.78Z"/>
            <path id="path1853" class="cls-2" d="M105.6,28.83a3.08,3.08,0,0,1-1.26-.43A1,1,0,0,1,104,28a6.85,6.85,0,0,1-.12-2c0-1.87.07-5.54.15-6.68l0-.21h.12c.27,0,2.25.18,2.57.24a1.88,1.88,0,0,1,1.11.61,2.18,2.18,0,0,1,.63,1,.71.71,0,0,0,.41.56c.15.08.16.08.45.08a.74.74,0,0,0,.41-.06.92.92,0,0,0,.39-.39.75.75,0,0,0,.06-.37.66.66,0,0,0-.07-.38.92.92,0,0,0-.2-.25c-.13-.12-.13-.12-.66-.27a5.3,5.3,0,0,1-1.57-1.14l-.26-.23H104l0-.37c0-.46.06-.64.17-.67l.52-.05a1.84,1.84,0,0,0,.71-.12,2.36,2.36,0,0,0,.32-.26,1.82,1.82,0,0,1,.31-.26l.3-.08a1.2,1.2,0,0,0,.63-.3.51.51,0,0,0,.21-.45.69.69,0,0,0-.09-.31,2.36,2.36,0,0,0-.55-.6.36.36,0,0,0-.3-.11A.37.37,0,0,0,106,15a2.1,2.1,0,0,0-.54.61.66.66,0,0,0-.08.43c0,.3,0,.33-.15.48s-.41.25-1,.28l-.23,0v-.64c0-.36,0-.88,0-1.17a20,20,0,0,0-.14-2.48l0-.42h.06c.18,0,1,0,1.17.07a1.3,1.3,0,0,1,.67.27c.31.21.37.23.62.22a1,1,0,0,0,.62-.28.71.71,0,0,0,.2-.84,1.18,1.18,0,0,0-.46-.48.71.71,0,0,0-.34-.09,1.09,1.09,0,0,0-.68.2,2.28,2.28,0,0,1-1.26.34l-.46,0h-.12V11c0-.33,0-.74,0-.9s0-.35,0-.42,0-.92-.1-1.32c0-.21,0-.39,0-.4s.11,0,.48.45a3.83,3.83,0,0,0,.87.81,3.61,3.61,0,0,0,1,.16l.35,0,.14.15a.68.68,0,0,0,.6.27,1.68,1.68,0,0,0,.36,0,.86.86,0,0,0,.52-.9c0-.37-.08-.54-.33-.66s-.16-.08-.43-.08a.74.74,0,0,0-.44.07,3.45,3.45,0,0,0-.32.21.69.69,0,0,1-.51.23c-.34,0-.69-.24-1.35-.9s-.89-1.08-.85-1.51A4.47,4.47,0,0,1,104,5.21a1.49,1.49,0,0,1,.74-.81,2.76,2.76,0,0,1,2.23.37,3.67,3.67,0,0,1,2,1.81c.08.25.24.42.79.83a4.38,4.38,0,0,1,1,1.11,8.23,8.23,0,0,0,.49.68c1,1.3,1.17,1.58,1.28,2.41a5.8,5.8,0,0,0,.46,1.56,8.46,8.46,0,0,1,.66,3.31c.07.94.07.88,0,1a15.59,15.59,0,0,1-1.29,1.28c-.44.31-.59.26-1.35-.43a13.87,13.87,0,0,1-1.47-1.56c-.13-.19-.16-.29-.11-.36a1,1,0,0,1,.56-.25,1.38,1.38,0,0,0,.58-.21,1,1,0,0,0,.49-.73.63.63,0,0,0-.14-.49.81.81,0,0,0-.72-.35.79.79,0,0,0-.58.13.76.76,0,0,0-.28.56,2.07,2.07,0,0,1-.65,1.1c-.26.3-.31.44-.2.61a29.25,29.25,0,0,0,3,2.9c.42.34.44.33,1.81-.78a2,2,0,0,1,.58-.39,3.27,3.27,0,0,1-.05.93,11.23,11.23,0,0,1-.68,2.46c-.14.31-1.93,3.94-2,4.09s-.18.23-.24.23a5.34,5.34,0,0,1-1-.82,5.2,5.2,0,0,0-1.09-.83,2.94,2.94,0,0,0-.94-.28,4.13,4.13,0,0,1-1.55-.54l-.18-.09h-.33a.88.88,0,0,0-.45.06.8.8,0,0,0-.37.38.86.86,0,0,0,0,.63.89.89,0,0,0,.42.46.84.84,0,0,0,.39.08,1.06,1.06,0,0,0,.64-.15,1.45,1.45,0,0,1,.94-.17,2.78,2.78,0,0,1,1.54.52,17.07,17.07,0,0,1,1.47,1.32l.28.26-.26.2a10.82,10.82,0,0,1-1.53.91,5.56,5.56,0,0,1-1.79.64,13.43,13.43,0,0,1-1.39,0Z"/>
          </g>
        </g>
      </g>
    </g>
  </g>
</svg>
