<?xml version="1.0" encoding="UTF-8"?>
<svg id="Layer_1" xmlns="http://www.w3.org/2000/svg" version="1.1" viewBox="0 0 700 733.2">
  <!-- Generator: Adobe Illustrator 29.4.0, SVG Export Plug-In . SVG Version: 2.1.0 Build 152)  -->
  <defs>
    <style>
      .st0 {
        fill: none;
        stroke-width: 5px;
      }

      .st0, .st1 {
        stroke: #fff;
        stroke-miterlimit: 10;
      }

      .st2 {
        fill: #6aa329;
      }

      .st3, .st1 {
        fill: #fff;
      }

      .st4 {
        fill: #101806;
      }
    </style>
  </defs>
  <g id="Brain">
    <path id="Brain_background" class="st1" d="M278.9,37.1l-126.9,71.3c-9,5-15.2,13.7-17.3,23.7-10.5,51.8-28.4,68.3,4.4,117.9,4.9,7.1,12,12.3,20.3,14.4,59.7,15.6,77,10.9,114,63.5,8.2,11.7,22.8,17.3,36.9,14.1,27.2-6.4,64.1-25.7,83.8-35.1,5.6-2.6,11.8-3.8,18.1-3.2l89,7.4c3.5.3,7.1,0,10.8-.8,59.5-13.4,89-81.1,57.7-133.4-12.6-21.3-29.9-42.8-47.5-73.2-3.6-6.2-9.3-11.4-15.9-14.4-82.7-38.1-124.8-73.3-227.2-52.4"><animateMotion
                  path="M0,0 0 90 0 0"
                  begin="0s" dur="4s" repeatCount="indefinite"
                  /></path>
    <g id="Electrods">
      <path class="st2" d="M280.6,183.3c-1.2-4.3-4.1-5.6-6.2-6.2-.8,0-1.5-.3-2.3-.3-2.9,0-5.9,1.2-7.7,3.3-1.5,1.5-3,4.4-1.7,8.5,1.2,4.3,4.1,5.6,6.2,6.2,3.5.9,7.7-.5,10-3.2,1.5-1.5,3-4.4,1.7-8.5h0v.2Z"><animateMotion
                  path="M0,0 0 90 0 0"
                  begin="0s" dur="4s" repeatCount="indefinite"
                  /></path>
      <path class="st2" d="M220,146.5h0c-2-1.7-3.8-2.3-5.5-2.3s-2.1.3-3,.5c-3.3,1.2-6.2,4.7-6.7,8.2-.5,2.1,0,5.3,3.3,7.9,3.3,2.7,6.5,2.4,8.5,1.5,3.3-1.2,6.1-4.7,6.5-8.2.5-2.1,0-5.3-3.3-7.9h0l.2.3Z"><animateMotion
                  path="M0,0 0 90 0 0"
                  begin="0s" dur="4s" repeatCount="indefinite"
                  /></path>
      <path class="st2" d="M282.3,122.6h0c-.5,2.3,0,5.5,3.3,8,3.5,2.7,6.5,2.4,8.7,1.5,3.3-1.4,6.1-4.7,6.5-8.2.5-2.1,0-5.3-3.5-7.9-2-1.7-3.8-2.3-5.5-2.3s-2.1.3-3,.5c-3.3,1.2-6.2,4.7-6.7,8.2h.2s0,0,0,0v.2Z"><animateMotion
                  path="M0,0 0 90 0 0"
                  begin="0s" dur="4s" repeatCount="indefinite"
                  /></path>
      <path class="st2" d="M362.9,182.1c-2-1.7-3.9-2.3-5.5-2.3s-2.1.3-3,.5c-3.3,1.2-6.2,4.7-6.7,8.2-.5,2.1,0,5.3,3.3,7.9,3.5,2.9,6.5,2.4,8.7,1.7,3.3-1.4,6.1-4.7,6.5-8.2h0c.5-2,0-5.2-3.5-7.7h.2,0Z"><animateMotion
                  path="M0,0 0 90 0 0"
                  begin="0s" dur="4s" repeatCount="indefinite"
                  /></path>
      <path class="st2" d="M305.7,263.3h0c3.3-1.2,6.1-4.7,6.5-8.2.5-2.1,0-5.3-3.3-7.9-2-1.7-3.8-2.3-5.5-2.3s-2.1.3-3,.5c-3.3,1.2-6.2,4.7-6.7,8.2-.5,2.1,0,5.3,3.3,7.9,3.3,2.9,6.5,2.4,8.5,1.7h.2v.2Z"><animateMotion
                  path="M0,0 0 90 0 0"
                  begin="0s" dur="4s" repeatCount="indefinite"
                  /></path>
      <path class="st2" d="M531.1,261.6c3.3,2.9,6.5,2.4,8.7,1.7,3.3-1.4,6.1-4.7,6.5-8.2.5-2.1,0-5.3-3.5-7.9-2-1.7-3.9-2.3-5.5-2.3s-2.1.3-3,.5c-3.3,1.2-6.2,4.7-6.7,8.2h0c-.5,2.3,0,5.5,3.3,8h.2,0Z"><animateMotion
                  path="M0,0 0 90 0 0"
                  begin="0s" dur="4s" repeatCount="indefinite"
                  /></path>
      <path class="st2" d="M430.9,106.2c-1.2-4.3-4.1-5.5-6.2-6.1-.8,0-1.5-.3-2.3-.3-3,0-6.1,1.2-7.9,3.3-1.5,1.5-3,4.3-1.7,8.3,1.2,4.3,3.9,5.6,6.1,6.2,3.5.9,7.7-.3,10.2-3.2,1.5-1.5,3-4.4,1.7-8.5h0l.2.2Z"><animateMotion
                  path="M0,0 0 90 0 0"
                  begin="0s" dur="4s" repeatCount="indefinite"
                  /></path>
      <path class="st2" d="M438.2,249.8c-1.7,0-2.1.3-3,.5-3.3,1.2-6.2,4.7-6.7,8.2-.5,2.1,0,5.3,3.3,7.9,1.7,1.5,3.6,2.3,5.9,2.3,3.9,0,7.4-3.2,9-7.1,1.2-3.6,0-7-3-9.4h0c-2-1.7-3.9-2.3-5.5-2.3h0Z"><animateMotion
                  path="M0,0 0 90 0 0"
                  begin="0s" dur="4s" repeatCount="indefinite"
                  /></path>
      <path class="st2" d="M214.6,222c3.8,0,7.4-3.2,9-7.1,1.2-3.6,0-7-3-9.4-2-1.7-3.8-2.3-5.5-2.3s-2.1.3-3,.5c-3.3,1.2-6.2,4.7-6.7,8.2-.5,2.1,0,5.3,3.3,7.9h0c1.7,1.5,3.6,2.3,5.9,2.3h0Z"><animateMotion
                  path="M0,0 0 90 0 0"
                  begin="0s" dur="4s" repeatCount="indefinite"
                  /></path>
      <path class="st2" d="M453.2,194.7c-.8,0-1.5-.3-2.3-.3-2.9,0-5.9,1.2-7.7,3.3-1.5,1.7-3,4.4-1.7,8.5,1.2,4.3,4.1,5.6,6.2,6.2,3.5.8,7.7-.5,10-3.2,1.5-1.7,3-4.4,1.7-8.5-1.2-4.3-4.1-5.6-6.2-6.2h0v.2Z"><animateMotion
                  path="M0,0 0 90 0 0"
                  begin="0s" dur="4s" repeatCount="indefinite"
                  /></path>
    </g>
    <path id="Brain_foreground" class="st4" d="M573.1,182.2c-.5-1.1-2.3-1.2-3.2-.3l-18.4,19c-1.1,1.2-3.5,4.3-4.3,6.8l-5.8,32.8c0,.8.5,1.5,1.1,2,1.1.8,1.1,1.2,2,2,3.6,3,5.5,7,4.9,11.4-.8,5-4.3,9.4-9,11.1-1.5.5-2.9.8-4.3.8-2.9,0-5.5-1.1-7.9-3.2-3.6-2.9-5.3-7-4.7-11.4.8-5,4.3-9.4,9-11.1.8-.5,1.7-.5,2.6-.6.8,0,1.5-.8,1.7-1.5l5.8-33.7v-.3c1.1-3.6,2.3-6.2,3.5-7.3l20.5-21.1c.8-.9,2.1-2.4,1.7-3.2-.5-.6-29.4-41.1-47.2-71.3-3.6-6.2-5.8-7.4-11.2-11.8-2.1-1.2-1.7-2-5.5-3.6,0,0-4.3-2.6-4.3-1.2l-7.9,106.6v.3c-.5.6,0,5.6-7.7,8.2h-.2l-19.3,2.1c-1.1,0-1.7.8-1.8,1.7-.3,2.4-1.5,3.3-3.2,5.2-2.6,2.9-6.7,4.6-10.5,4.6s-2.1,0-3.2-.5c-4.3-1.1-7.4-4.1-9-8.7-1.5-4.4-.6-8.8,2.4-12.1,3.3-3.6,8.8-5.3,13.7-4.3,3.9.9,7,3.6,8.5,7.4.3.8,1.1,1.2,1.7,1.2l15.9-1.4h0c5.5-1.2,7.3-2.7,8-8.8l7.7-102.6c0-1.2-5.9-4.3-5.5-3.9-22-10.6-41.4-20.8-60.6-29.1h-.3c-.3,0-.5.3-.5.5l-3,40.5c0,1.1.5,2.3,1.5,2.4,4.3,1.1,5.5,3.5,7,8s.6,9-2.4,12.1h0c-2.7,2.7-6.7,4.4-10.6,4.4s-3.6-.5-4.7-.9c-4.3-1.1-5.8-3.6-7.1-8.2-1.5-4.4-.6-8.7,2.3-12,2.3-2.4,5.2-3.9,8.3-4.4.8,0,1.4-1.7,1.4-2.6l3.2-41.9v-.3l-.3-.3h0c-18.8-8-54-15.8-63.1-17.8-1.1-.3-3.2-.5-3.2.6.6,13.1,4.1,83.9,4.6,93.1.2,3.6-.2,5.2-1.7,7.3s-2.3,2.4-3.5,3.5l-72,45.1-.8.5c.8,4.1,0,7.7-2.9,10.8-2.6,2.7-6.7,4.6-10.5,4.6s-3.6-.5-5.2-1.1h0c-3.8-2-5.5-3.6-6.8-8-1.5-4.4-.6-8.8,2.4-12.1,3.3-3.6,8.8-5.3,13.7-4.3,2.3.8,3.9,1.8,5.3,3.2.6.9,1.7,2.7,3,2.1l70.3-44c3.5-2.6,4.1-5,3.9-7.7l-3.9-92.9c0-1.7-1.1-1.8-1.7-2.1s-44.6-.5-73.6,5.5c0,0-.5,0-.5.3-1.2.6-1.7,1.7-1.8,3v1.4l-3.2,32.2c0,.8,0,1.2.5,2.4l16.1,32.5c.5.6,1.1,1.2,1.7,1.1,3.2-.3,5.9.8,8.7,3,3.6,3,5.5,7,4.9,11.4-.8,5-4.3,9.4-9,11.1-1.5.5-2.9.9-4.3.9-2.9,0-5.5-1.1-7.9-3.2-3.6-2.7-5.3-7-4.7-11.4.5-3.9,3-7.4,6.4-9.7.8-.5,1.2-1.5.6-2.4l-15.6-32.2c-.5-.6-.5-2.1-.5-3,.5-3.5,2.3-22.5,3-30.7,0-1.5-1.5-2.4-2.7-1.7l-118.6,66.6c-9,5-15.2,13.7-17.3,23.7-3.3,16.1-7.3,29-10.2,40.4s.5,3.5,2,4.3l17.3,8.2,16.1,7.4c.5,0,1.1.9,3.6.6,1.7-.3,2.4-.5,5.2-2.6h0l17.8-15.5,15.5-12.4c.5-.3,1.2-1.2,1.2-1.5s-.5-.9-.6-1.2c-.8-1.2-.8-1.5-1.2-3-.3-1.4-.5-2.7,0-4.3.5-2.4,1.5-4.9,3.2-6.8s3.6-3.5,5.9-4.3c2.1-.8,4.3-1.1,6.2-.6s4.1,1.4,5.8,2.7c1.8,1.5,3.2,3.2,3.9,5s1.1,3.9.6,6.2l-.5,2.3h0c-.6,2-1.8,3.8-3.2,5.3-1.5,1.5-3.2,2.7-5,3.5-.8.3-1.5.5-2.3.6s-1.4.3-2.3.3-2.1,0-3.2-.5c-1.1-.3-2-.8-3-1.4-.5-.3-.8-.3-1.2-.3s-.8,0-1.1.5l-19,15.8-16.5,13.7c-.3.3-3.2,2.4-6.1,3.2-3,.6-6.2-.9-6.7-1.1l-14.7-7-17.2-8-1.2-.8h0c-.8-.5-2,0-2.3,1.1-4.1,20.5-2.4,38.4,17,67.7,3,4.3,8.8,9,10.9,10.3s1.1.3,1.5,0l50.4-41.6c.6-.5.8-1.4.6-2.1-.6-1.8-1.1-3.6-.6-5.6.8-5,4.3-9.4,9-11.1,4.3-1.7,8.5-.8,12.1,2.3,4.3,3.5,5.9,8.5,4.3,13.7-1.8,5.5-7,9.4-12.3,9.7-3.2,0-6.1-1.2-8.2-3.2l-.5-.5c-.6-.6-1.7-.6-2.4,0l-48.6,39.6c-.5.5-.5,1.2.3,1.5,1.4.5,3.2,1.2,4.3,1.4,47.1,12.1,66.6,10.9,91.5,36.1,1.2,1.2,2.9.5,3.2-.5l2.1-10.9c.6-4.1,1.2-5.5,3.2-7,0,0,25-13.8,31.7-20.5s.3-.8.3-.8c-1.7-4.9-1.7-3.8-1.1-8.2.8-5,4.3-9.4,9-11.1,4.3-1.7,8.5-.8,12.1,2.3s5.5,7,4.7,11.4c-.8,5-4.3,9.4-9,11.1-1.5.5-2.9.8-4.3.8h-2.6c-1.7-.3-3-1.2-3.6-1.7-.3,0-.5-.3-.8,0l-31.7,20.2c-1.2.8-2.1,2-2.4,3.3s-.5,2-.8,3.3l-2.7,13.7v1.8c5.2,6.2,9,11.7,15.2,20.5,8.2,11.7,22.8,17.3,36.9,14.1,25.5-6.1,59.7-23.5,80.3-33.4,1.1-.5,1.4-1.7.8-2.7l-34.8-51.9c-1.7-2.3-3-8.2-2.9-10.9v-40.4c.2-.8-.5-1.5-1.1-1.7-1.5-.5-2.9-1.2-4.3-2.4-3.6-2.7-5.3-7-4.7-11.4.8-5,4.3-9.4,9-11.1,4.3-1.5,8.5-.8,12.1,2.3s5.5,7,4.9,11.4c-.8,5-4.3,9.4-9,11.1-.6.3-1.1.5-1.7.5-.8.3-1.5,1.1-1.5,1.8l.5,39.9c0,1.7,2.1,8.2,2.9,9l34.5,52.8c.5.8,1.4,1.1,2.3.8,4.9-1.7,9.9-2.4,14.9-2l38.4,3.2c1.2,0,1.1-.5.8-1.2l-12.4-33.4c-.3-.8-1.1-1.2-2-1.2h-.6c-3.2-.6-4.4-1.7-7-3.2h0c-3.6-3-5.3-7-4.7-11.4.8-5,4.3-9.4,9-11.1,4.3-1.7,8.5-.8,12.1,2.3,4.3,3.5,5.9,8.5,4.3,13.7-1.1,3.2-2.3,5-4.7,6.7-.8.5-.8,2.1-.5,2.9l13.2,35.4c.3.6.8,1.2,1.7,1.2l41.3,3.3c3.5.3,7.1,0,10.8-.8,57.5-12.9,87.4-76.5,61.3-128.1l-.8.3h0l.3.3h0l.5.9Z"><animateMotion
                  path="M0,0 0 90 0 0"
                  begin="0s" dur="4s" repeatCount="indefinite"
                  /></path>
    <path id="Brain_outline" class="st0" d="M278.9,37.1l-126.9,71.3c-9,5-15.2,13.7-17.3,23.7-10.5,51.8-28.4,68.3,4.4,117.9,4.9,7.1,12,12.3,20.3,14.4,59.7,15.6,77,10.9,114,63.5,8.2,11.7,22.8,17.3,36.9,14.1,27.2-6.4,64.1-25.7,83.8-35.1,5.6-2.6,11.8-3.8,18.1-3.2l89,7.4c3.5.3,7.1,0,10.8-.8,59.5-13.4,89-81.1,57.7-133.4-12.6-21.3-29.9-42.8-47.5-73.2-3.6-6.2-9.3-11.4-15.9-14.4-82.7-38.1-124.8-73.3-227.2-52.4"><animateMotion
                  path="M0,0 0 90 0 0"
                  begin="0s" dur="4s" repeatCount="indefinite"
                  /></path>
  </g>
  <g id="Box">
    <path id="Box_background" class="st3" d="M350.7,388.4c-.5-.3-2.4-.6-3-.6-16.4-.5-241.5-66.2-255.6-53.6-14.1,12.6-.5.8-.9,1.1l-60,48c-11.2,8.2,23.1,22.5,73,34.9,1.7.5,7.7.8,7,2.4s-.3,1.2-.3,2l20.9,195.8c.3,1.7,1.4,3,2.7,3.5l206.1,74.4c1.8.6,3.5,0,4.3,0s4.4-2.7,4.4-5.2l.3,1.4c0,2.1,1.8,3.5,3.9,3.8s2.7-.3,3-.5l209.8-74.2c1.4-.5,2.3-1.7,2.4-3.2l21.1-196.7h0c-.5-4.6,1.5-2.4,5-4.1,49.9-12.6,86.2-26.9,73.3-36h0l-67.1-53.7c-.8-.6-1.7-.8-2.6-.6l-248,60.7"/>
    <g id="Box1">
      <path class="st4" d="M79.3,350.7l-13.5,10.9-13.5,10.9-13.5,10.9c-6.5,4.9-.5,9.7,14.7,15.2,15.2,5.5,31.3,10.3,61.6,17.5,6.2-.8,2.4-1.5,7.4-.3s138,35.8,143.8,37.5c5.8,1.7,1.7.3,2.3.2s1.5-.5,2.3-.8c3.2-2,8.2-5.6,14.4-10.5,6.1-4.9,13.4-10.9,21.3-17.6,7.9-6.7,18.1-15.5,24.9-21.3,7-5.8,9.4-7.7,11.5-9.3s1.5-1.2,2.1-2,.8-1.2-.2-1.7l-1.2-.5c-.6-.3-1.7-.5-2.3-.6-6.2-1.1-20.6-4.7-39.8-9.7-19-5-43-11.4-67.5-17.6-24.6-6.2-51.9-13.1-74.8-18.1-22.9-5-42.7-8.5-54.6-9-1.5,0-3,0-4.3.5s-2.6.5-3.6.8-2,.8-2.6,1.2-2,1.7-2,1.7l-12.8,10.9v.5h0l-.2.2Z"/>
      <path class="st4" d="M661.8,383.5s-.3-.5-.5-.5l-30.8-25.8-30.1-25c-.6-.5-1.4-.6-2.1-.5l-118.9,29s-87.1,21.7-118.1,28.8c0,0-2.6.8-3,1.2s-.5.3-.5.5l-.5,1.1v1.1c0,.5.2,1.1.5,1.5s1.5,2,1.7,2.3l33.2,25.4,32.6,26.6c1.1.8,4.1,3,5.8,4.3s5,.5,6.2,0c7.7-2.6,25.5-7,48.4-12.9,22.8-5.9,50.7-13.7,78.5-20.2l11.5-3,10-2.6,1.7-.5s1.1.3,0,0c.6.3,1.4.5,2,.5s1.4,0,2-.2l3.8-1.1,3.8-1.2c7.9-2,10.5-2.7,12.6-3.5s3.9-1.7,10.2-3.5c8-2.4,15.9-4.7,22.6-7,6.7-2.3,12.3-4.4,15.6-6.7,2-1.5,3.2-3,3.5-4.4s-1.1-3-1.7-3.8v.3h0l-.2-.2Z"/>
      <path class="st4" d="M121.4,420.5h-1.5c-2.3.5-3.8,2.3-3.5,4.6l20.2,191.4c.3,1.7,1.4,3,2.7,3.5l200.7,71.8c.5.3,2.1.8,4.4.8s3.2-3.5,3.2-5.6v-288.7c0-.5-.5-.6-.8-.5l-74.8,59.7c-1.1.8-2.1.8-3.3.6l-147.2-37.3h-.2l.2-.2Z"/>
      <path class="st4" d="M432.9,458c-1.1.3-3.2.3-3.9-.5,0,0-1.5-.8-2.1-1.4l-20.3-16.7-42.7-34-10.2-8c-.5-.3-.8,0-.8.5v291.1c0,2.1,1.8,3,3.8,3s2.7-.8,3.2-1.1l203.1-71h.3c.5-.6.6-1.1.8-1.8l20.6-196.1h0c0-1.1-.8-1.8-1.7-1.8h-.5l-146.8,37.3h0l-2.7.5h-.2Z"/>
    </g>
  </g>
</svg>