<?xml version="1.0" encoding="UTF-8"?>
<svg id="Layer_2" data-name="Layer 2" xmlns="http://www.w3.org/2000/svg" viewBox="0 0 778.76 795.49">
  <defs>
    <style>
      .cls-1 {
        fill: none;
        stroke: #fff;
        stroke-width: 5px;
      }

      .cls-1, .cls-2 {
        stroke-miterlimit: 10;
      }

      .cls-3 {
        fill: #6aa329;
      }

      .cls-4 {
        fill: #fff;
      }

      .cls-2 {
        stroke: #101806;
      }

      .cls-2, .cls-5 {
        fill: #101806;
      }
    </style>
  </defs>
  <g id="Layer_1-2" data-name="Layer 1">
    <g id="Brain">
      <path id="Brain_background_2" data-name="Brain background 2" class="cls-3" d="M302.99,10.13l-153.9,86.6c-10.8,6.1-18.4,16.6-21,28.8-12.7,62.8-34.5,82.9,5.4,143,5.8,8.7,14.5,15,24.7,17.5,72.4,18.9,93.4,13.3,138.3,77,10,14.2,27.7,21,44.8,17.1,33-7.8,77.6-31.2,101.6-42.6,6.9-3.1,14.4-4.6,21.9-3.9l107.8,9c4.3.3,8.7.1,13-.9,72.2-16.2,107.8-98.3,70-161.9-15.3-25.8-36.3-52-57.7-88.7-4.5-7.6-11.2-13.8-19.3-17.5C478.19,27.43,427.19-15.37,302.99,10.13"><animateMotion
                  path="M0,0 0 90 0 0"
                  begin="0s" dur="4s" repeatCount="indefinite"
                  /></path>
      <path id="Brain_foreground" data-name="Brain foreground" class="cls-5" d="M661.09,186.33c-.6-1.2-2.8-1.4-3.8-.3l-22.3,23.1c-1.3,1.4-4.3,5.2-5.1,8.2l-7,39.7c0,1,.5,1.8,1.2,2.4,1.2,1,1.2,1.5,2.4,2.4,4.5,3.6,6.6,8.4,5.8,13.8-.9,6-5.2,11.4-10.8,13.5-1.8.6-3.5,1-5.2,1-3.5,0-6.7-1.2-9.6-3.8-4.5-3.5-6.4-8.4-5.7-13.8.9-6,5.2-11.4,10.9-13.5,1-.5,2.1-.6,3.2-.8,1,0,1.8-.9,2-1.8l7-40.8v-.3c1.2-4.4,2.8-7.6,4.3-8.8l24.9-25.6c1-1.1,2.5-2.9,2.1-3.8-.5-.8-35.8-49.8-57.2-86.5-4.5-7.6-7-9.1-13.6-14.4-2.5-1.5-2.1-2.4-6.6-4.5,0,0-5.1-3.2-5.1-1.5l-9.6,129.2v.4c-.6.8,0,6.9-9.4,9.9h-.2l-23.4,2.5c-1.2,0-2.1.9-2.2,2-.3,3-1.8,4-3.9,6.3-3.2,3.5-8.1,5.5-12.7,5.5s-2.5,0-3.8-.5c-5.2-1.2-9.1-5-10.8-10.5-1.8-5.4-.8-10.6,3-14.7,4-4.4,10.6-6.4,16.5-5.1,4.8,1.1,8.5,4.4,10.3,9.1.3.9,1.2,1.4,2.1,1.4l19.3-1.6h0c6.7-1.5,8.8-3.4,9.7-10.6l9.4-124.5c0-1.5-7.2-5.1-6.6-4.8-26.7-12.9-50.3-25.2-73.4-35.4h-.3c-.3,0-.5.3-.5.6l-3.6,49.2c0,1.2.6,2.7,1.8,3,5.2,1.2,6.7,4.2,8.4,9.7,1.8,5.6.8,10.8-3,14.7h0c-3.3,3.3-8.1,5.4-12.9,5.4s-4.5-.6-5.7-1.1c-5.2-1.2-7-4.4-8.7-9.9-1.8-5.4-.8-10.5,2.8-14.5,2.7-2.9,6.3-4.8,10.2-5.4,1-.1,1.7-2.1,1.7-3.1l3.8-50.9v-.3l-.3-.3h0c-22.8-9.7-65.5-19.2-76.6-21.6-1.3-.3-3.9-.5-3.8.8.8,15.9,5,101.9,5.5,112.8.2,4.5-.2,6.3-2,8.8s-2.7,3-4.3,4.2l-87.2,54.7-.9.6c1,4.9,0,9.4-3.5,13-3.1,3.4-8.1,5.6-12.7,5.6s-4.5-.5-6.3-1.2h0c-4.6-2.4-6.6-4.4-8.2-9.7-1.8-5.4-.8-10.6,3-14.7,4-4.4,10.6-6.4,16.5-5.1,2.7.9,4.8,2.2,6.4,3.9.8,1.1,2,3.4,3.6,2.6l85.3-53.3c4.2-3.1,5-6,4.7-9.3l-4.8-112.7c0-2.1-1.3-2.2-2-2.5s-54.2-.6-89.3,6.6c-.1,0-.5,0-.6.3-1.4.8-2.1,2.1-2.2,3.6v1.7l-3.9,39.1c0,.9,0,1.5.6,3l19.5,39.4c.5.8,1.2,1.4,2.1,1.2,3.8-.3,7.2.9,10.5,3.6,4.5,3.6,6.6,8.4,5.8,13.8-.9,6-5.2,11.4-10.8,13.5-1.8.6-3.5,1.1-5.2,1.1-3.5,0-6.7-1.2-9.6-3.8-4.5-3.4-6.4-8.4-5.7-13.8.6-4.8,3.6-9.1,7.8-11.8.9-.6,1.4-1.8.8-2.9l-19-39.1c-.5-.8-.6-2.6-.6-3.6.5-4.2,2.7-27.3,3.6-37.2.1-1.8-1.8-3-3.3-2.1l-143.7,80.9c-10.8,6.1-18.4,16.6-21,28.8-4,19.6-8.8,35.1-12.4,48.9s.5,4.2,2.4,5.1l21,10,19.6,9c.5.1,1.2,1.1,4.5.8,2-.3,2.9-.6,6.3-3.1h0l21.6-18.7,18.7-15.1c.5-.3,1.4-1.4,1.5-1.9,0-.4-.5-1.1-.8-1.5-.9-1.5-.9-1.9-1.4-3.6-.3-1.6-.5-3.4-.1-5.1.5-3,1.8-5.8,3.8-8.2s4.4-4.2,7.2-5.2c2.5-.9,5.1-1.2,7.6-.8s5,1.6,7,3.4c2.2,1.8,3.9,3.9,4.8,6.1s1.2,4.8.8,7.5l-.6,2.7h0c-.8,2.4-2.2,4.6-3.9,6.4-1.8,1.8-3.9,3.3-6.1,4.2-.9.3-1.8.6-2.7.8s-1.6.3-2.7.3-2.5-.1-3.8-.6c-1.2-.3-2.4-.9-3.6-1.6-.5-.3-.9-.3-1.4-.3s-.9.1-1.2.6l-23.1,19.2-20.1,16.6c-.3.3-3.8,3-7.3,3.9-3.6.8-7.6-1.1-8.1-1.2l-17.8-8.4-20.8-9.7-1.5-.9h0c-1-.6-2.4,0-2.7,1.2-5,24.9-3,46.5,20.7,82.1,3.6,5.2,10.6,10.8,13.2,12.6s1.2.3,1.8,0l61.1-50.4c.8-.6,1-1.6.8-2.5-.8-2.2-1.2-4.5-.8-6.9.9-6,5.2-11.4,10.9-13.5,5.1-2,10.3-.9,14.7,2.7,5.2,4.2,7.2,10.3,5.1,16.5-2.2,6.7-8.4,11.5-15,11.7-3.9,0-7.3-1.4-10-3.8-.1,0-.3-.3-.5-.5-.8-.8-2-.8-2.9,0l-59,48.1c-.6.5-.5,1.5.3,1.8,1.6.6,3.9,1.4,5.2,1.6,57.1,14.8,80.9,13.2,111,43.8,1.4,1.4,3.5.6,3.8-.5l2.5-13.2c.8-5,1.4-6.6,3.8-8.4,0,0,30.4-16.8,38.5-24.9s.3-1,.3-1c-2.1-5.8-2-4.6-1.2-10,.9-6,5.2-11.4,10.9-13.5,5.1-2,10.3-.9,14.7,2.7,4.5,3.6,6.6,8.4,5.7,13.8-.9,6-5.2,11.4-10.8,13.5-1.8.6-3.5,1-5.2,1h-3.1c-2-.3-3.6-1.5-4.4-2.1-.3-.1-.6-.3-.9,0l-38.4,24.4c-1.5.9-2.5,2.4-2.9,4s-.5,2.4-.9,4l-3.3,16.6v2.2c6.3,7.5,10.9,14.2,18.4,24.9,10,14.2,27.7,21,44.8,17.1,31-7.3,72.4-28.5,97.3-40.5,1.2-.6,1.7-2.1.9-3.3l-42.1-62.9c-2-2.7-3.6-9.9-3.5-13.2v-48.9c.2-.9-.5-1.8-1.2-2.1-1.8-.6-3.5-1.5-5.1-2.9-4.5-3.4-6.4-8.4-5.7-13.8.9-6,5.2-11.4,10.9-13.5,5.1-1.9,10.3-.9,14.7,2.7,4.5,3.6,6.6,8.4,5.8,13.8-.9,6-5.2,11.4-10.8,13.5-.8.3-1.3.5-2.1.6-1,.3-1.8,1.2-1.8,2.2l.5,48.4c0,2.1,2.5,9.9,3.5,10.8l41.7,64c.6.9,1.7,1.2,2.7.9,5.8-2.1,12-3,18.1-2.4l46.6,3.8c1.5-.1,1.3-.6,1-1.4l-15.1-40.5c-.3-.9-1.3-1.5-2.4-1.5h-.8c-3.8-.8-5.4-2-8.5-3.8h0c-4.5-3.6-6.4-8.4-5.7-13.8.9-6,5.2-11.4,10.9-13.5,5.1-2,10.3-.9,14.7,2.7,5.2,4.2,7.2,10.3,5.1,16.5-1.3,3.8-2.7,6-5.7,8.1-.9.6-.9,2.5-.5,3.5l16,42.9c.3.8,1,1.4,2,1.5l50.1,4c4.3.3,8.7,0,13-.9,69.8-15.6,106.1-92.8,74.3-155.3l-1,.4h0l.3.4h0Z"><animateMotion
                  path="M0,0 0 90 0 0"
                  begin="0s" dur="4s" repeatCount="indefinite"
                  /></path>
      <path id="Brain_outline" data-name="Brain outline" class="cls-1" d="M302.99,10.13l-153.9,86.6c-10.8,6.1-18.4,16.6-21,28.8-12.7,62.8-34.5,82.9,5.4,143,5.8,8.7,14.5,15,24.7,17.5,72.4,18.9,93.4,13.3,138.3,77,10,14.2,27.7,21,44.8,17.1,33-7.8,77.6-31.2,101.6-42.6,6.9-3.1,14.4-4.6,21.9-3.9l107.8,9c4.3.3,8.7.1,13-.9,72.2-16.2,107.8-98.3,70-161.9-15.3-25.8-36.3-52-57.7-88.7-4.5-7.6-11.2-13.8-19.3-17.5C478.19,27.43,427.19-15.37,302.99,10.13"><animateMotion
                  path="M0,0 0 90 0 0"
                  begin="0s" dur="4s" repeatCount="indefinite"
                  /></path>
    </g>
    <g id="Box">
      <path id="Box_background" data-name="Box background" class="cls-4" d="M390.09,421.63c-.5-.3-3-.8-3.6-.8-19.9-.5-293-80.2-310.1-64.9s-.6.9-1.1,1.2L2.59,415.33c-13.6,10,28,27.2,88.6,42.4,2.1.5,9.3.9,8.5,3s-.4,1.5-.3,2.4l25.4,237.5c.3,2.1,1.6,3.7,3.4,4.3l250.1,90.2c2.2.8,4.3,0,5.2,0,1.3,0,5.4-3.4,5.4-6.3l.3,1.7c0,2.5,2.2,4.3,4.8,4.6s3.3-.3,3.7-.6l254.4-90c1.7-.6,2.8-2.1,3-3.9l25.6-238.6h0c-.6-5.5,1.8-3,6-4.9,60.6-15.3,104.5-32.5,88.9-43.7h0l-81.4-65.1c-.9-.8-2.1-.9-3.1-.8l-300.8,73.6"/>
      <g id="Box1">
        <path class="cls-5" d="M60.99,375.93l-16.3,13.3-16.3,13.3-16.3,13.3c-7.9,5.8-.6,11.8,17.8,18.4s37.9,12.6,74.7,21.2c7.5-.9,3-1.8,9.1-.3s167.3,43.4,174.4,45.5,2,.3,2.8.2,1.8-.5,2.7-.9c3.9-2.4,10-6.9,17.4-12.7,7.3-5.8,16.2-13.3,25.7-21.4s21.9-18.7,30.2-25.7c8.4-7,11.4-9.4,13.9-11.2s1.8-1.5,2.5-2.4.9-1.4-.2-2l-1.5-.6c-.8-.3-2-.6-2.7-.8-7.5-1.2-25.1-5.7-48.2-11.7-23-6-52.1-13.8-81.9-21.4s-63-15.9-90.8-22-51.8-10.3-66.3-10.9c-1.8,0-3.6,0-5.2.5s-3.1.6-4.5,1-2.4,1-3.1,1.5-2.4,2-2.4,2l-15.4,13.3v.5h-.1,0Z"/>
        <path class="cls-5" d="M767.29,415.63c0-.1-.3-.5-.6-.6l-37.4-31.3-36.4-30.4c-.8-.6-1.7-.8-2.5-.6l-144.1,35.2s-105.7,26.3-143.2,35c0,0-3.1,1-3.7,1.5s-.6.3-.6.6l-.5,1.2v1.2c0,.5.2,1.2.5,1.8s1.8,2.4,2.1,2.7l40.3,30.8,39.5,32.3c1.3,1,4.9,3.6,7,5.2s6.1.6,7.6,0c9.4-3.1,31-8.5,58.7-15.7s61.5-16.6,95.2-24.4l13.9-3.6,12.1-3.1,2-.5s1.2.3,0,0c.8.3,1.7.5,2.4.5s1.7,0,2.4-.2l4.6-1.3,4.6-1.4c9.6-2.4,12.7-3.3,15.3-4.3s4.8-2,12.4-4.3c9.7-3,19.3-5.7,27.4-8.5s15-5.4,18.9-8.1c2.4-1.8,3.9-3.7,4.2-5.4s-1.3-3.7-2-4.6v.3h-.1Z"/>
        <path class="cls-5" d="M111.89,460.53h-1.8c-2.7.5-4.6,2.8-4.3,5.5l24.5,232.1c.3,2.1,1.6,3.6,3.3,4.2l243.4,87c.5.3,2.5,1,5.4,1s3.9-4.2,3.9-6.9v-350.2c0-.5-.6-.8-.9-.5l-90.8,72.3c-1.2.9-2.5,1-4,.8l-178.5-45.3h-.2Z"/>
        <path class="cls-2" d="M489.79,506.03c-1.3.3-3.9.3-4.8-.6,0,0-1.8-.9-2.5-1.7l-24.7-20.2-51.8-41.3-12.4-9.7c-.5-.3-1,0-1,.5v353.2c0,2.5,2.2,3.7,4.6,3.7s3.4-.9,3.9-1.2l246.3-86.2h.3c.5-.8.8-1.3.9-2.2l25.1-237.8h0c0-1.2-.9-2.2-2.1-2.2h-.5l-178,45.2h0l-3.4.6h.1v-.1Z"/>
      </g>
    </g>
  </g>
</svg>